<?xml version="1.0" standalone="no"?>
<!DOCTYPE svg PUBLIC "-//W3C//DTD SVG 1.1//EN" "http://www.w3.org/Graphics/SVG/1.1/DTD/svg11.dtd" >
<svg xmlns="http://www.w3.org/2000/svg">
<metadata>Generated by IcoMoon</metadata>
<defs>
<font id="amp-cantechfont" horiz-adv-x="1024">
<font-face units-per-em="1024" ascent="960" descent="-64" />
<missing-glyph horiz-adv-x="1024" />
<glyph unicode="&#x20;" horiz-adv-x="512" d="" />
<glyph unicode="&#xe900;" glyph-name="newsletter" horiz-adv-x="819" d="M660.275 721.613c-0.819 3.277-1.638 5.734-2.458 8.192-1.638 3.277-3.277 7.373-4.915 10.65s-4.096 6.554-6.554 9.83c-4.096 5.734-9.83 11.469-15.565 15.565-3.277 2.458-6.554 4.096-9.83 5.734s-6.554 3.277-10.65 4.915c-7.373 2.458-14.746 4.915-23.757 5.734-4.096 0.819-8.192 0.819-13.107 0.819-10.65 0-20.48-0.819-29.491-3.277s-18.022-5.734-26.214-9.83c-4.096-2.458-8.192-4.915-11.469-7.373-7.373-5.734-13.107-12.288-18.842-18.842-2.458-3.277-4.915-7.373-7.373-11.469-4.096-8.192-7.373-17.203-9.83-26.214-2.458-9.83-3.277-19.661-3.277-30.31 0-5.734 0-10.65 0.819-15.565s1.638-9.83 2.458-14.746c1.638-5.734 3.277-11.469 5.734-17.203 4.096-8.192 9.011-14.746 14.746-21.299 4.096-4.096 8.192-7.373 13.107-10.65 4.096-2.458 8.192-4.096 12.288-6.554 3.277-1.638 6.554-2.458 9.83-3.277 6.554-1.638 13.926-3.277 21.299-4.096 4.096 0 7.373-0.819 11.469-0.819v0c9.83 0 19.661 0.819 27.853 2.458s17.203 4.096 25.395 7.373v16.384c-4.915-1.638-9.011-3.277-13.926-4.915-2.458-0.819-5.734-1.638-8.192-2.458-8.192-1.638-16.384-3.277-24.576-3.277-2.458 0-4.096 0-6.554 0-3.277 0-5.734 0-9.011 0-5.734 0.819-11.469 1.638-16.384 2.458-4.915 1.638-9.83 3.277-13.926 4.915-6.554 3.277-12.288 7.373-17.203 12.288-3.277 3.277-6.554 7.373-9.011 11.469-1.638 1.638-2.458 4.096-3.277 6.554-2.458 4.096-4.096 9.011-4.915 14.746-1.638 4.915-2.458 10.65-2.458 16.384 0 3.277 0 5.734 0 9.011 0 9.011 0.819 18.022 2.458 26.214 0.819 4.096 1.638 8.192 3.277 11.469 1.638 4.096 3.277 7.373 4.915 10.65 3.277 7.373 8.192 13.107 13.107 18.842 2.458 2.458 5.734 4.915 8.192 7.373s5.734 4.096 9.83 6.554c13.107 7.373 29.491 11.469 47.514 11.469 8.192 0 15.565-0.819 22.938-2.458 2.458-0.819 4.915-1.638 6.554-2.458 3.277-0.819 5.734-2.458 9.011-4.096 8.192-4.096 15.565-10.65 20.48-18.022 1.638-2.458 3.277-4.915 4.915-8.192 1.638-2.458 2.458-5.734 4.096-9.011 3.277-9.011 4.915-18.842 4.915-30.31 0-7.373-0.819-13.107-1.638-18.842-0.819-2.458-1.638-5.734-2.458-8.192s-1.638-4.915-3.277-7.373c-0.819-1.638-1.638-2.458-2.458-3.277-3.277-4.096-6.554-7.373-10.65-9.011-1.638-0.819-3.277-0.819-4.915-0.819-4.096 0-7.373 0.819-9.83 3.277-1.638 1.638-3.277 3.277-4.096 5.734-0.819 1.638-1.638 3.277-1.638 5.734s-0.819 4.915-0.819 7.373v2.458l3.277 54.886v3.277c-2.458 0.819-5.734 1.638-9.011 2.458s-6.554 1.638-9.83 1.638c-3.277 0.819-6.554 0.819-9.83 0.819s-5.734 0-9.011 0v0c-4.096 0-7.373 0-11.469-0.819s-6.554-1.638-9.83-3.277c-1.638-0.819-3.277-1.638-4.915-2.458-2.458-0.819-4.096-2.458-6.554-4.096-1.638-1.638-4.096-3.277-5.734-4.915-2.458-2.458-4.915-5.734-6.554-8.192s-2.458-4.915-3.277-7.373c-3.277-7.373-4.915-15.565-4.915-25.395 0-2.458 0-4.915 0-7.373 0.819-7.373 2.458-13.926 5.734-19.661 1.638-2.458 2.458-4.915 4.915-6.554 1.638-2.458 3.277-4.096 5.734-5.734s4.096-3.277 6.554-4.096c4.915-2.458 9.83-3.277 16.384-3.277v0c2.458 0 4.096 0 5.734 0s4.096 0.819 5.734 0.819c3.277 0.819 6.554 2.458 9.83 4.096 1.638 0.819 3.277 2.458 4.096 3.277 4.096 3.277 7.373 8.192 9.83 13.107h0.819c0-1.638 0.819-3.277 0.819-4.915s0.819-3.277 1.638-4.096c0.819-1.638 1.638-2.458 2.458-4.096 0.819-0.819 1.638-2.458 3.277-3.277 0.819-0.819 2.458-1.638 4.096-2.458 4.096-2.458 9.011-3.277 13.926-3.277 6.554 0 12.288 1.638 17.203 4.096 1.638 0.819 3.277 2.458 4.915 3.277 1.638 1.638 3.277 2.458 4.915 4.096 3.277 3.277 5.734 6.554 7.373 11.469 0.819 2.458 2.458 4.096 3.277 6.554 1.638 4.915 3.277 9.83 4.096 15.565 0.819 4.915 1.638 10.65 1.638 16.384 3.277 13.107 2.458 22.938 0 31.13zM571.802 649.523c-1.638-0.819-3.277-1.638-4.915-1.638s-4.096-0.819-5.734-0.819c-8.192 0-13.926 2.458-18.022 7.373-1.638 2.458-3.277 5.734-4.096 9.83-0.819 1.638-0.819 4.096-0.819 6.554s0 4.915 0 7.373c0 0 0 0 0 0.819 0 6.554 0.819 12.288 2.458 17.203s4.096 9.83 6.554 13.107c1.638 1.638 3.277 3.277 4.915 4.915 1.638 0.819 2.458 1.638 4.096 2.458 4.915 2.458 9.83 3.277 15.565 3.277 6.554 0 13.107-0.819 18.842-2.458l-1.638-31.949c0-3.277-0.819-6.554-0.819-9.011-0.819-5.734-2.458-10.65-4.096-14.746-3.277-5.734-7.373-10.65-12.288-12.288zM581.632 461.107c0-5.734-1.638-10.65-3.277-14.746l-137.626 117.965 32.768 27.853c-4.096 4.096-7.373 8.192-10.65 13.107l-80.282-67.994-181.043 150.733c4.096 2.458 9.83 4.096 14.746 4.096h229.376c0.819 5.734 1.638 10.65 2.458 16.384h-231.834c-13.107 0-25.395-5.734-34.406-15.565 0 0 0 0 0 0s0 0 0 0c-7.373-8.192-12.288-19.661-12.288-31.949v-199.885c0-26.214 20.48-47.514 46.694-47.514h335.053c25.395 0 46.694 21.299 46.694 47.514v101.581c-4.915-0.819-10.65-2.458-16.384-2.458v-99.123zM323.584 565.965l-134.349-118.784c-1.638 4.096-3.277 9.011-3.277 13.926v199.885c0 5.734 1.638 10.65 4.096 14.746l133.53-109.773zM551.322 429.978h-335.053c-5.734 0-11.469 1.638-16.384 4.915l135.987 120.422 42.598-35.226c1.638-1.638 3.277-1.638 4.915-1.638s4.096 0.819 4.915 1.638l39.322 33.587 138.445-118.784c-4.096-3.277-9.011-4.915-14.746-4.915z" />
<glyph unicode="&#xe901;" glyph-name="quote-bubble" horiz-adv-x="819" d="M604.059 527.873c0-24.431-19.805-44.237-44.237-44.237s-44.237 19.805-44.237 44.237c0 24.431 19.805 44.237 44.237 44.237s44.237-19.805 44.237-44.237zM458.242 527.873c0-24.431-19.805-44.237-44.237-44.237s-44.237 19.805-44.237 44.237c0 24.431 19.805 44.237 44.237 44.237s44.237-19.805 44.237-44.237zM313.243 527.873c0-24.431-19.805-44.237-44.237-44.237s-44.237 19.805-44.237 44.237c0 24.431 19.805 44.237 44.237 44.237s44.237-19.805 44.237-44.237zM174.798 84.686c-3.277 0-5.734 0.819-8.192 1.638-6.554 3.277-10.65 10.65-9.83 18.022l8.192 144.179h-132.71c-10.65 0-18.842 8.192-18.842 18.842v525.107c0 10.65 8.192 18.842 18.842 18.842h754.483c10.65 0 18.842-8.192 18.842-18.842v-525.107c0-10.65-8.192-18.842-18.842-18.842h-408.781l-191.693-159.744c-3.277-2.458-7.373-4.096-11.469-4.096zM51.099 286.209h134.349c4.915 0 9.83-2.458 13.926-5.734 3.277-4.096 5.734-9.011 4.915-13.926l-7.373-120.422 163.021 135.987c3.277 2.458 7.373 4.096 12.288 4.096h397.312v487.424h-718.438v-487.424z" />
<glyph unicode="&#xe902;" glyph-name="search" horiz-adv-x="819" d="M765.297 250.835l-116.417 116.425c-10.781 10.789-26.141 14.197-39.838 10.265l-87.556 87.548c43.868 49.922 67.838 113.279 67.838 180.33 0 73.089-28.467 141.812-80.142 193.495s-120.381 80.142-193.47 80.142c-0.016 0-0.016 0-0.033 0-150.88 0-273.629-122.749-273.629-273.629 0-73.097 28.467-141.812 80.142-193.503 51.683-51.683 120.398-80.142 193.503-80.134v0c66.019 0 128.451 23.224 178.004 65.798l87.695-87.695c-3.932-13.697-0.524-29.049 10.256-39.838l116.433-116.425c7.897-7.905 18.252-11.854 28.606-11.854s20.701 3.949 28.606 11.846c15.811 15.802 15.811 41.419 0 57.229zM315.695 410.866v0c-62.652-0.008-121.553 24.388-165.855 68.69s-68.706 103.203-68.69 165.847c0 129.327 105.218 234.545 234.545 234.545v0c62.652 0 121.553-24.396 165.839-68.69 44.302-44.302 68.706-103.203 68.706-165.855 0-62.644-24.404-121.537-68.706-165.847s-103.195-68.69-165.839-68.69zM441.663 664.949h-251.97c-10.781 0-19.538-8.749-19.538-19.546s8.749-19.546 19.538-19.546h251.97c10.797 0 19.554 8.749 19.554 19.546s-8.757 19.546-19.554 19.546zM441.663 753.177h-251.97c-10.781 0-19.538-8.749-19.538-19.546 0-10.789 8.749-19.546 19.538-19.546h251.97c10.797 0 19.554 8.749 19.554 19.546s-8.757 19.546-19.554 19.546zM370.147 576.721h-180.453c-10.781 0-19.538-8.749-19.538-19.546s8.749-19.546 19.538-19.546h180.445c10.797 0 19.538 8.749 19.538 19.546s-8.733 19.546-19.53 19.546z" />
<glyph unicode="&#xe903;" glyph-name="cannabis" horiz-adv-x="819" d="M559.555 464.040c-4.866 1.073-11.747 2.163-19.759 2.621-8.028 0.508-17.203 0.336-26.845-0.557-9.634-0.909-19.71-2.736-29.614-5.218-9.888-2.531-19.62-5.726-28.508-9.519-2.736-1.171-5.358-2.384-7.922-3.613 1.614 1.376 3.219 2.753 4.866 4.211 4.383 3.998 8.929 8.258 13.394 12.845 8.978 9.15 17.777 19.472 25.969 30.269 8.143 10.83 15.696 22.11 22.061 33.235 6.349 11.117 11.665 21.971 15.63 31.703 4.014 9.724 6.717 18.293 8.356 24.502 0.852 3.072 1.294 5.661 1.696 7.34 0.352 1.72 0.483 2.687 0.483 2.687s-0.893-0.385-2.466-1.196c-1.507-0.844-3.875-1.974-6.611-3.621-5.538-3.244-13.058-8.176-21.332-14.655-8.29-6.472-17.293-14.524-26.288-23.658-8.978-9.142-17.793-19.464-26.001-30.245-8.176-10.797-15.745-22.077-22.11-33.186-2.687-4.637-5.104-9.232-7.373-13.73 2.032 9.331 3.826 19.44 5.12 30.114 1.917 15.311 2.851 31.629 2.851 47.964-0.049 16.335-0.975 32.653-2.908 47.964-1.884 15.311-4.719 29.598-7.889 41.837-3.17 12.255-6.734 22.462-9.634 29.598-2.867 7.143-5.104 11.223-5.104 11.223s-2.236-4.080-5.112-11.223c-2.9-7.135-6.463-17.342-9.634-29.598-3.17-12.239-6.005-26.526-7.889-41.837-1.933-15.311-2.875-31.629-2.908-47.964 0.008-16.335 0.918-32.653 2.843-47.964 1.319-10.674 3.105-20.783 5.12-30.13-2.269 4.514-4.669 9.101-7.356 13.746-6.382 11.1-13.935 22.381-22.118 33.186-8.217 10.781-17.023 21.103-26.001 30.245-8.995 9.126-17.99 17.187-26.296 23.658-8.266 6.48-15.786 11.411-21.324 14.655-2.736 1.647-5.104 2.785-6.619 3.621-1.548 0.811-2.466 1.196-2.466 1.196s0.139-0.967 0.492-2.687c0.401-1.679 0.852-4.268 1.704-7.34 1.622-6.21 4.325-14.787 8.331-24.502 3.973-9.732 9.306-20.586 15.639-31.703 6.365-11.117 13.926-22.397 22.069-33.235 8.2-10.797 16.998-21.119 25.96-30.269 4.465-4.596 9.019-8.847 13.402-12.845 1.638-1.458 3.252-2.834 4.874-4.211-2.564 1.229-5.202 2.449-7.922 3.613-8.921 3.793-18.637 6.996-28.525 9.519-9.904 2.482-19.972 4.301-29.606 5.218-9.65 0.893-18.825 1.073-26.845 0.557-8.028-0.467-14.877-1.548-19.759-2.621-2.433-0.467-4.399-1.106-5.71-1.425-1.335-0.369-2.056-0.639-2.056-0.639s0.508-0.59 1.491-1.54c1.008-0.909 2.433-2.417 4.342-3.998 3.777-3.26 9.29-7.487 16.097-11.747 6.816-4.268 14.95-8.511 23.863-12.337 8.905-3.793 18.62-7.004 28.508-9.552 9.896-2.515 19.956-4.35 29.59-5.284 6.316-0.59 12.37-0.852 18.080-0.819-6.611-2.531-13.427-5.726-19.898-9.519-6.169-3.572-12.034-7.651-17.302-11.854-5.284-4.227-9.921-8.643-13.689-12.812-3.768-4.145-6.652-8.045-8.569-10.961-1.901-2.925-2.867-4.817-2.867-4.817s2.13-0.131 5.628 0.066c3.473 0.205 8.282 0.786 13.763 1.982 5.48 1.188 11.633 3.006 17.924 5.489 6.283 2.466 12.747 5.538 18.907 9.101 12.37 7.070 23.511 16.269 31.007 24.642 3.768 4.162 6.652 8.045 8.569 10.961 0.541 0.86 0.991 1.597 1.393 2.253 0.36 0.115 0.655 0.188 0.893 0.27 0.213-0.082 0.532-0.164 0.885-0.27 0.393-0.655 0.844-1.393 1.393-2.253 1.909-2.908 4.784-6.799 8.561-10.961 7.504-8.364 18.637-17.572 30.99-24.642 6.177-3.572 12.64-6.644 18.932-9.101 6.275-2.482 12.435-4.301 17.908-5.489 5.489-1.196 10.306-1.778 13.779-1.982 3.49-0.188 5.62-0.066 5.62-0.066s-0.958 1.884-2.867 4.817c-1.901 2.908-4.801 6.816-8.577 10.961-3.76 4.178-8.397 8.593-13.664 12.812-5.284 4.211-11.149 8.29-17.31 11.854-6.48 3.793-13.296 6.996-19.907 9.519 5.71-0.033 11.78 0.221 18.080 0.819 9.634 0.926 19.71 2.769 29.598 5.284 9.888 2.548 19.603 5.759 28.5 9.552 8.913 3.826 17.056 8.061 23.855 12.337 6.832 4.26 12.337 8.479 16.114 11.747 1.901 1.581 3.326 3.088 4.334 3.998 0.991 0.942 1.507 1.54 1.507 1.54s-0.737 0.27-2.048 0.639c-1.36 0.319-3.326 0.958-5.759 1.425zM640.909 862.441c0 39.936-32.498 72.434-72.434 72.434h-317.768c-39.936 0-72.425-32.498-72.425-72.434 0-19.202 7.553-36.626 19.8-49.603-0.172-2.171-0.287-4.268-0.287-6.275v-554.353c0-47.587 38.715-86.286 86.286-86.286h251.036c47.571 0 86.286 38.707 86.286 86.286v554.361c0 1.999-0.115 4.104-0.287 6.275 12.239 12.968 19.792 30.392 19.792 49.594zM250.708 919.179h317.776c31.293 0 56.754-25.444 56.754-56.738 0-15.581-6.332-29.721-16.548-39.985l-0.467-0.467c-0.418-0.401-0.877-0.77-1.311-1.171-1.040-0.975-2.114-1.917-3.236-2.802-0.336-0.279-0.705-0.524-1.057-0.803-1.073-0.819-2.163-1.597-3.26-2.335-0.483-0.295-0.958-0.565-1.442-0.86-1.040-0.639-2.081-1.262-3.17-1.827-0.59-0.319-1.196-0.59-1.81-0.877-1.008-0.483-2.015-0.967-3.039-1.393-0.721-0.287-1.458-0.532-2.179-0.803-0.975-0.352-1.933-0.713-2.908-1.008-0.852-0.254-1.712-0.451-2.556-0.664-0.909-0.229-1.81-0.483-2.736-0.664-1.040-0.205-2.114-0.336-3.187-0.492-0.754-0.106-1.491-0.246-2.253-0.319-1.843-0.18-3.695-0.287-5.603-0.287h-317.768c-1.876 0-3.752 0.106-5.595 0.287-0.762 0.074-1.516 0.213-2.253 0.319-1.073 0.156-2.146 0.279-3.195 0.492-0.918 0.18-1.819 0.434-2.712 0.664-0.86 0.213-1.729 0.41-2.564 0.664-0.991 0.295-1.95 0.655-2.908 1.008-0.737 0.262-1.475 0.508-2.179 0.803-1.040 0.426-2.040 0.909-3.039 1.393-0.606 0.287-1.221 0.557-1.81 0.877-1.090 0.557-2.138 1.188-3.187 1.827-0.475 0.295-0.958 0.565-1.425 0.86-1.122 0.737-2.204 1.524-3.269 2.335-0.352 0.27-0.721 0.516-1.065 0.803-1.114 0.877-2.179 1.827-3.236 2.802-0.426 0.401-0.877 0.77-1.294 1.171l-0.483 0.467c-10.207 10.265-16.531 24.404-16.531 39.985 0.008 31.285 25.461 56.738 56.746 56.738zM213.484 708.948h392.225v-389.628h-392.225v389.628zM605.708 252.219c0-38.928-31.662-70.607-70.59-70.607h-251.036c-38.928 0-70.599 31.678-70.599 70.607v51.421h392.225v-51.421zM213.484 724.636v75.71c0.524-0.319 1.081-0.59 1.622-0.901 0.606-0.352 1.221-0.696 1.843-1.032 1.761-0.926 3.539-1.81 5.366-2.589 0.352-0.147 0.713-0.27 1.073-0.418 1.606-0.655 3.244-1.253 4.907-1.794 0.565-0.188 1.139-0.369 1.712-0.541 2.007-0.598 4.014-1.139 6.070-1.565 0.115-0.025 0.238-0.033 0.369-0.057 1.982-0.41 3.998-0.696 6.029-0.926 0.549-0.074 1.114-0.123 1.671-0.172 2.187-0.197 4.358-0.336 6.562-0.336h317.776c2.212 0 4.399 0.139 6.562 0.336 0.557 0.049 1.122 0.098 1.679 0.172 2.032 0.229 4.047 0.516 6.046 0.926 0.115 0.025 0.238 0.033 0.352 0.057 2.048 0.434 4.080 0.967 6.062 1.565 0.573 0.172 1.155 0.352 1.729 0.541 1.647 0.532 3.277 1.139 4.899 1.794 0.369 0.147 0.721 0.27 1.073 0.418 1.827 0.786 3.613 1.663 5.358 2.589 0.623 0.336 1.229 0.68 1.843 1.032 0.541 0.311 1.106 0.582 1.63 0.901v-75.71h-392.233z" />
<glyph unicode="&#xe904;" glyph-name="software" horiz-adv-x="819" d="M140.8 704h-38.4c-21.76 0-38.4 16.64-38.4 38.4v40.96c0 3.84-1.28 6.4-3.84 8.96l-34.56 26.88 34.56 26.88c2.56 2.56 3.84 6.4 3.84 8.96v40.96c0 21.76 16.64 38.4 38.4 38.4h38.4v-25.6h-38.4c-7.68 0-12.8-5.12-12.8-12.8v-40.96c0-10.24-3.84-19.2-11.52-26.88l-14.080-8.96 14.080-8.96c7.68-7.68 11.52-16.64 11.52-26.88v-40.96c0-7.68 5.12-12.8 12.8-12.8h38.4v-25.6zM25.6 396.8h38.4c21.76 0 38.4-16.64 38.4-38.4v-40.96c0-3.84 1.28-6.4 3.84-8.96l34.56-26.88-34.56-26.88c-2.56-2.56-3.84-6.4-3.84-8.96v-40.96c0-21.76-16.64-38.4-38.4-38.4h-38.4v25.6h38.4c7.68 0 12.8 5.12 12.8 12.8v40.96c0 10.24 3.84 20.48 11.52 26.88l14.080 8.96-14.080 8.96c-7.68 7.68-11.52 16.64-11.52 26.88v40.96c0 7.68-5.12 12.8-12.8 12.8h-38.4v25.6zM166.4 678.4h550.4v-25.6h-550.4v25.6zM166.4 601.6h601.6v-25.6h-601.6v25.6zM166.4 524.8h524.8v-25.6h-524.8v25.6zM166.4 448h601.6v-25.6h-601.6v25.6z" />
<glyph unicode="&#xe905;" glyph-name="cleantech" horiz-adv-x="819" d="M783.524 709.349c0 49.996-18.85 97.452-53.019 133.636v0 0c-0.041 0.049-0.098 0.098-0.147 0.156-36.52 38.986-88.015 61.44-141.41 61.702-0.238 0.025-0.492 0.033-0.737 0.041-0.016 0-0.041 0.008-0.074 0.008-0.36 0-0.721-0.008-1.081-0.049-54.1-0.229-104.276-22.118-141.345-61.678-0.041-0.057-0.098-0.123-0.156-0.172 0-0.008-0.008-0.008-0.008-0.016 0 0 0-0.008-0.016-0.008-34.095-36.258-52.871-83.689-52.871-133.612v-1.065c0.254-48.964 18.702-95.592 51.954-131.539 0.262-0.459 0.565-0.893 0.934-1.303 0.451-0.508 0.958-0.909 1.483-1.27 36.323-37.872 85.066-59.163 137.511-60.039 0.057-0.008 0.115-0.008 0.18-0.008 1.229-0.131 2.318-0.147 3.293-0.147 0.008 0 0.008 0 0.025 0s0.025 0 0.041 0c0.582 0 1.212 0 1.892 0.033 52.371 0.532 102.842 22.364 139.010 60.146 0.532 0.36 1.049 0.778 1.507 1.294 0.352 0.393 0.639 0.819 0.901 1.262 33.358 35.906 51.855 82.551 52.101 131.613v0 0c0 0 0 0 0 0v1.016zM723.722 591.811c-15.122 12.386-31.736 22.553-49.39 30.319 9.445 25.133 14.655 51.397 15.516 78.275h77.636c-1.974-40.157-17.31-78.217-43.762-108.593zM408.732 700.412h77.562c0.852-26.862 6.062-53.101 15.499-78.209-17.678-7.766-34.324-17.949-49.431-30.368-26.386 30.401-41.665 68.461-43.631 108.577zM452.207 826.724c15.335-12.583 32.227-22.888 50.168-30.712-9.814-25.584-15.213-52.347-16.089-79.766h-77.636c1.548 40.894 16.818 79.634 43.557 110.477zM595.952 880.464c24.003-20.939 43.418-46.744 56.885-75.637-18.194-6.267-37.339-9.896-56.885-10.674v86.311zM580.125 880.398v-86.254c-19.505 0.778-38.625 4.407-56.828 10.682 13.468 28.86 32.85 54.649 56.828 75.571zM580.125 778.318v-62.071h-77.996c0.86 25.428 5.882 50.242 14.983 73.974 20.136-7.070 41.361-11.117 63.013-11.903zM580.125 700.412v-60.301c-21.889-0.795-43.319-4.907-63.619-12.067-8.708 23.241-13.525 47.514-14.377 72.368h77.996zM580.125 624.275v-87.876c-24.429 21.258-44.106 47.555-57.541 76.98 18.383 6.406 37.757 10.109 57.541 10.895zM595.952 536.343v87.925c19.767-0.786 39.166-4.506 57.582-10.936-13.443-29.426-33.128-55.722-57.582-76.988zM595.952 640.102v60.301h78.045c-0.852-24.871-5.669-49.168-14.393-72.425-20.324 7.201-41.779 11.33-63.652 12.124zM595.952 716.247v62.071c21.692 0.795 42.942 4.833 63.070 11.895 9.093-23.724 14.115-48.538 14.975-73.957h-78.045zM667.632 810.586c-13.378 29.008-32.358 55.124-55.714 76.792 37.847-5.128 73.482-22.356 101.057-49.136-13.877-11.289-29.139-20.57-45.343-27.656zM508.518 810.594c-16.212 7.094-31.506 16.368-45.416 27.664 27.927 27.247 63.046 44.261 101.229 49.218-23.405-21.684-42.418-47.833-55.812-76.882zM507.83 607.556c12.861-28.451 31.187-54.19 53.772-75.727-37.036 5.382-71.148 22.127-98.345 48.472 13.656 11.1 28.647 20.226 44.573 27.255zM668.279 607.506c15.884-7.021 30.859-16.138 44.515-27.206-26.894-26.018-61.456-42.959-98.288-48.488 22.577 21.52 40.894 47.243 53.772 75.694zM689.84 716.247c-0.868 27.419-6.259 54.174-16.081 79.749 17.94 7.823 34.824 18.129 50.11 30.728 26.796-30.786 42.123-69.526 43.663-110.477h-77.693zM385.999 564.99c-0.106 0.279-0.229 0.532-0.36 0.795l-37.921 83.223v129.401h1.065c17.687 0 32.080 14.393 32.080 32.088s-14.393 32.080-32.080 32.088h-145.015c-17.687 0-32.080-14.393-32.080-32.088 0-17.687 14.385-32.088 32.080-32.088h1.114v-129.401l-155.263-340.673c-2.023-3.965-25.854-52.134-6.029-84.763 11.182-18.399 33.382-27.722 65.987-27.722h166.748c0 0 0 0 0.008 0h166.691c32.596 0 54.788 9.322 65.97 27.722 19.825 32.621-3.998 80.79-6.029 84.763l-116.965 256.655zM187.515 810.488c0 8.97 7.291 16.253 16.245 16.253h145.007c8.97 0 16.261-7.291 16.261-16.253s-7.291-16.253-16.253-16.253h-145.015c-8.946-0.008-16.245 7.291-16.245 16.253zM220.004 643.994c0.467 1.032 0.713 2.154 0.713 3.285v131.121h111.165v-70.541h-38.060c-4.375 0-7.913-3.547-7.913-7.913s3.539-7.913 7.913-7.913h38.060v-44.753c0-1.139 0.246-2.253 0.713-3.285l2.286-5.005h-33.71c-4.375 0-7.913-3.539-7.913-7.913s3.539-7.913 7.913-7.913h40.927l24.175-53.035h-33.612c-4.375 0-7.913-3.555-7.913-7.922s3.539-7.913 7.913-7.913h40.813l23.405-51.339h-33.677c-4.375 0-7.922-3.539-7.922-7.913 0-4.366 3.547-7.913 7.922-7.913h40.886l22.151-48.595h-299.868l93.635 205.464zM495.452 231.756c-8.102-13.32-25.756-20.087-52.421-20.087h-166.748c-0.008 0-0.008 0-0.016 0h-166.683c-26.673 0-44.319 6.767-52.437 20.087-15.647 25.715 6.414 69.042 6.636 69.468 0.066 0.123 0.123 0.246 0.18 0.377l55.198 121.094h314.302l55.19-121.094c0.057-0.131 0.115-0.254 0.18-0.36 0.213-0.442 22.266-43.778 6.619-69.485zM717.079 385.331h-73.9l14.475 87.499c1.245 7.627-2.171 15.286-8.192 18.604-2.13 1.212-4.538 1.868-6.947 1.868-5.218 0-10.019-2.9-12.878-7.799l-89.407-154.862c-2.826-4.915-3.26-11.305-1.122-16.703 2.441-6.136 7.93-10.109 13.992-10.109h73.9l-14.467-87.384c-1.311-7.569 2.023-15.229 8.11-18.694 2.114-1.237 4.522-1.884 6.988-1.884 5.104 0 9.896 2.867 12.812 7.676 0.025 0.049 0.057 0.106 0.082 0.156l89.432 154.976c2.826 4.989 3.244 11.19 1.065 16.654-2.499 6.054-7.963 10.002-13.943 10.002zM716.227 366.49l-88.064-152.609 15.974 96.559c0.377 2.294-0.254 4.628-1.769 6.414-1.507 1.769-3.703 2.793-6.029 2.793h-82.461c-0.008 0.033-0.025 0.074-0.041 0.115-0.369 0.909-0.311 2.204 0.115 2.949l88.064 152.519-15.966-96.526c-0.385-2.294 0.262-4.637 1.778-6.406 1.507-1.786 3.703-2.793 6.029-2.793h82.444c0.025-0.041 0.041-0.090 0.057-0.131 0.352-0.893 0.287-2.154-0.131-2.884z" />
<glyph unicode="&#xe906;" glyph-name="blockchain" horiz-adv-x="819" d="M40.96 196.506c0 49.971 0 99.942 0 149.914 0 0 0 0.819 0 0.819 0.819 4.096 2.458 7.373 4.915 10.65 2.458 2.458 4.915 3.277 7.373 4.096 40.96 0 81.92 0 122.061 0 2.458-0.819 4.915-1.638 6.554-3.277 4.096-4.096 5.734-9.011 5.734-14.746 0-40.96 0-81.92 0-122.88 0-7.373 0-13.926 0-21.299 0-5.734-1.638-10.65-5.734-13.926-1.638-3.277-4.915-4.096-8.192-4.096-38.502 0-77.005 0-115.507 0-0.819 0-1.638 0-2.458 0-4.915 0-8.192 2.458-11.469 6.554-1.638 2.458-2.458 5.734-3.277 8.192zM179.405 271.872c0 23.757 0 48.333 0 72.090 0 4.915-1.638 6.554-5.734 6.554-39.322 0-78.643 0-117.146 0-4.096 0-5.734-1.638-5.734-6.554 0-48.333 0-95.846 0-144.179 0-4.915 1.638-6.554 5.734-6.554 39.322 0 78.643 0 117.146 0 4.096 0 5.734 1.638 5.734 6.554 0 23.757 0 48.333 0 72.090zM160.563 324.301c0-4.096 0-7.373 0-10.65-30.31 0-61.44 0-91.75 0 0 3.277 0 7.373 0 10.65 31.13 0 61.44 0 91.75 0zM126.976 274.33c0-3.277 0-6.554 0-9.83 0 0-0.819-0.819-0.819-0.819s-0.819 0-0.819 0c-18.022 0-36.864 0-54.886 0-0.819 0-0.819 0-1.638 0 0 4.096 0 7.373 0 11.469 19.661-0.819 38.502-0.819 58.163-0.819zM171.213 397.21l16.384 25.395c40.141-16.384 86.016-12.288 122.88 11.469l69.632-90.112c-16.384-27.034-4.096-63.898 28.672-73.728 12.288-3.277 25.395-2.458 36.864 4.096 22.118 12.288 30.31 37.683 22.938 59.802h0.819l158.106 84.378c0.819 0.819 1.638 0.819 1.638 1.638 36.864-39.322 101.581-36.864 134.349 9.83 13.107 18.022 18.022 42.598 13.107 65.536-8.192 36.864-37.683 62.259-71.27 67.174v133.53c-7.373 0-16.384 0-24.576 0v-133.53c-6.554-0.819-13.926-2.458-20.48-5.734 0 0.819 0 0.819-0.819 1.638l-73.728 108.954c0 0-0.819 0-0.819 0.819 18.842 19.661 18.842 50.79-0.819 69.632s-50.79 18.842-69.632-0.819c-2.458-2.458-4.096-4.915-5.734-7.373-0.819 0.819-0.819 0.819-1.638 1.638l-269.517 98.304v2.458c0 23.757-15.565 45.056-39.322 49.971-31.949 6.554-58.982-18.022-58.982-48.333 0-27.034 22.118-49.152 49.152-49.152l24.576-104.858c-73.728-13.926-122.061-84.378-108.134-158.106 6.554-36.864 28.672-68.813 59.802-88.474l-13.107-20.48zM525.926 710.144c3.277 9.83 13.926 16.384 24.576 16.384 8.192 0 15.565-4.096 19.661-11.469 9.83-18.842-3.277-37.683-21.299-37.683-15.565 0-28.672 15.565-22.938 32.768zM188.416 809.267c-13.926 0-24.576 10.65-24.576 24.576s10.65 24.576 24.576 24.576 24.576-10.65 24.576-24.576-10.65-24.576-24.576-24.576zM209.715 788.787c8.192 4.096 15.565 9.83 20.48 17.203l269.517-99.123h1.638v-4.915c0-2.458 0-5.734 0.819-8.192l-145.818-81.92c-23.757 42.598-68.813 69.632-117.965 69.632l-24.576 108.134-4.096-0.819zM256.41 438.17c-75.366-12.288-140.083 52.429-127.795 127.795 7.373 45.875 44.237 82.739 90.112 90.112 75.366 12.288 140.083-52.429 127.795-127.795-7.373-45.875-44.237-82.739-90.112-90.112zM421.888 293.171c-13.926 0-24.576 10.65-24.576 24.576s10.65 24.576 24.576 24.576 24.576-10.65 24.576-24.576-10.65-24.576-24.576-24.576zM457.933 355.43c-0.819-0.819-1.638-0.819-2.458-1.638-15.565 14.746-39.322 18.022-58.163 6.554l-67.994 87.654c18.842 18.022 32.768 40.96 39.322 66.355l237.568-37.683c0-13.107 3.277-25.395 9.011-36.864l-157.286-84.378zM609.485 501.248l-236.749 37.683v8.192c0 14.746-2.458 29.491-7.373 43.418l144.998 81.92c12.288-16.384 34.406-22.938 54.067-15.565 0-0.819 0.819-1.638 0.819-1.638l73.728-109.773c-13.926-11.469-24.576-27.034-29.491-44.237zM752.845 467.661c-4.096-26.214-25.395-46.694-50.79-50.79-41.779-6.554-77.005 28.672-70.451 70.451 4.096 26.214 25.395 46.694 50.79 50.79 41.779 6.554 77.005-28.672 70.451-70.451zM310.477 570.88c-21.299 20.48-45.875 31.13-75.366 31.13-28.672 0-54.067-10.65-74.547-31.13-3.277 3.277-6.554 6.554-9.011 9.011 42.598 45.056 120.422 48.333 167.936 0-2.458-2.458-5.734-5.734-9.011-9.011zM296.55 556.954c-3.277-3.277-6.554-5.734-9.011-9.011-13.926 13.926-31.13 21.299-51.61 21.299s-37.683-7.373-51.61-22.118c-3.277 3.277-5.734 6.554-9.011 9.011 30.31 33.587 87.654 36.045 121.242 0.819zM273.613 534.016c-3.277-3.277-6.554-5.734-9.011-9.011-18.842 16.384-38.502 16.384-57.344 0-3.277 3.277-5.734 5.734-9.011 9.011 17.203 19.661 53.248 22.938 75.366 0zM767.59 888.73c1.638-0.819 4.096-1.638 5.734-3.277s2.458-4.096 2.458-5.734c0-0.819 0-0.819 0-1.638 0-33.587 0-67.994 0-101.581 0-3.277-0.819-6.554-3.277-8.192-1.638-1.638-3.277-1.638-4.915-2.458-0.819 0-0.819 0-1.638 0-49.971 0-100.762 0-150.733 0-3.277 0-6.554 1.638-8.192 4.096-0.819 1.638-1.638 2.458-1.638 4.096 0 35.226 0 71.27 0 107.315 0.819 1.638 1.638 2.458 1.638 4.096 0.819 1.638 3.277 3.277 5.734 4.096 50.79-0.819 102.4-0.819 154.829-0.819zM614.4 878.080c0-33.587 0-67.994 0-101.581 49.971 0 99.942 0 149.914 0 0 33.587 0 67.994 0 101.581-49.971 0-99.942 0-149.914 0zM673.382 762.573c10.65 0 21.299 0 31.949 0 0-0.819 0-0.819 0-1.638 0-4.915 0-9.83 0-14.746 0-5.734 4.915-9.83 10.65-9.83 3.277 0 7.373 0 10.65 0 4.096 0 6.554-4.096 4.915-8.192-0.819-1.638-2.458-2.458-4.096-2.458 0 0-0.819 0-1.638 0-24.576 0-49.152 0-73.728 0-2.458 0-4.096 0.819-5.734 3.277-1.638 3.277 0.819 7.373 4.915 7.373 3.277 0 6.554 0 9.83 0 7.373 0 11.469 4.096 11.469 11.469 0 4.096 0 9.011 0 13.107 0.819 0.819 0.819 0.819 0.819 1.638zM254.771 502.067c0-9.501-7.702-17.203-17.203-17.203s-17.203 7.702-17.203 17.203c0 9.501 7.702 17.203 17.203 17.203s17.203-7.702 17.203-17.203zM691.405 459.469v31.13l-31.13-13.107zM691.405 493.056v36.864l-30.31-49.971zM693.043 529.92v-36.864l30.31-13.107zM693.043 490.598v-31.13l31.13 18.022zM691.405 427.52v25.395l-31.13 18.022zM693.043 427.52l31.13 43.418-31.13-18.022zM126.976 249.754c0-3.277 0-6.554 0-9.83 0 0-0.819-0.819-0.819-0.819s-0.819 0-0.819 0c-18.022 0-36.864 0-54.886 0-0.819 0-0.819 0-1.638 0 0 4.096 0 7.373 0 11.469 19.661-0.819 38.502-0.819 58.163-0.819zM126.976 298.906c0-3.277 0-6.554 0-9.83 0 0-0.819-0.819-0.819-0.819s-0.819 0-0.819 0c-18.022 0-36.864 0-54.886 0-0.819 0-0.819 0-1.638 0 0 4.096 0 7.373 0 11.469 19.661-0.819 38.502-0.819 58.163-0.819z" />
<glyph unicode="&#xe907;" glyph-name="analyst" horiz-adv-x="733" d="M668.654 650.989c-7.948 0.417-14.674-5.691-15.105-13.61-2.573-49.598-19.46-100.661-47.6-143.791-1.509-2.343-2.328-5.073-2.328-7.861v-316.182h-220.537l-68.094 156.64c-2.271 5.246-7.459 8.638-13.179 8.638-171.112 0-175.194 21.975-192.311 114.444-2.616 14.128-5.49 29.678-9.241 46.738-1.437 6.582-7.272 11.282-14.027 11.282h-49.209l47.844 101.667c0.949 2.055 1.437 4.297 1.365 6.568-0.23 7.085-0.158 15.32-0.072 23.398l0.072 12.087c0 157.157 123.096 280.253 280.253 280.253 20.796 0 41.549-2.17 61.641-6.467 7.746-1.682 15.407 3.306 17.045 11.066 1.653 7.761-3.291 15.392-11.052 17.045-22.061 4.714-44.812 7.1-67.634 7.1-173.268 0-308.996-135.729-308.996-308.996l-0.072-11.814c-0.072-7.186-0.129-14.487-0.014-21.069l-56.036-119.086c-2.098-4.455-1.753-9.658 0.877-13.811 2.63-4.168 7.2-6.683 12.13-6.683h60.218c2.544-12.345 4.671-23.843 6.654-34.507 19.072-103.004 33.889-136.792 211.124-137.927l68.109-156.668c2.285-5.246 7.473-8.638 13.193-8.638h244.323c7.948 0 14.372 6.439 14.372 14.372v326.343c29.462 46.536 47.14 101.193 49.914 154.383 0.402 7.919-5.691 14.674-13.625 15.091zM689.853 895.326h-258.695c-23.771 0-43.116-19.345-43.116-43.116v-129.347c0-23.771 19.345-43.116 43.116-43.116h35.93v-64.674c0-5.504 3.147-10.52 8.077-12.92 2.012-0.977 4.168-1.452 6.295-1.452 3.162 0 6.295 1.049 8.882 3.076l96.694 75.97h102.817c23.771 0 43.116 19.345 43.116 43.116v129.347c0 23.771-19.345 43.116-43.116 43.116zM704.225 722.863c0-7.919-6.439-14.372-14.372-14.372h-107.789c-3.219 0-6.338-1.078-8.882-3.076l-77.35-60.765v49.468c0 7.933-6.424 14.372-14.372 14.372h-50.302c-7.933 0-14.372 6.453-14.372 14.372v129.347c0 7.919 6.439 14.372 14.372 14.372h258.695c7.933 0 14.372-6.453 14.372-14.372v-129.347zM459.902 809.095h50.302c7.948 0 14.372 6.439 14.372 14.372s-6.424 14.372-14.372 14.372h-50.302c-7.948 0-14.372-6.439-14.372-14.372s6.424-14.372 14.372-14.372zM653.923 780.351h-194.021c-7.948 0-14.372-6.439-14.372-14.372s6.424-14.372 14.372-14.372h194.021c7.948 0 14.372 6.439 14.372 14.372s-6.424 14.372-14.372 14.372z" />
<glyph unicode="&#xe908;" glyph-name="ppt-file" horiz-adv-x="819" d="M266.317 661.747c3.2-0.461 7.309-0.691 11.891-0.691 20.557 0 38.157 5.018 50.022 16.218 9.152 8.666 14.182 21.466 14.182 36.557 0 15.066-6.618 27.866-16.461 35.648-10.266 8.218-25.587 12.339-47.053 12.339-21.261 0-36.339-1.382-47.066-3.2v-151.949h34.496v55.078zM266.317 734.17c2.509 0.691 7.309 1.357 14.4 1.357 17.357 0 27.187-8.448 27.187-22.605 0-15.782-11.418-25.139-29.939-25.139-5.018 0-8.666 0.218-11.648 0.909v45.478zM396.851 661.747c3.2-0.461 7.309-0.691 11.891-0.691 20.557 0 38.157 5.018 50.022 16.218 9.152 8.666 14.182 21.466 14.182 36.557 0 15.066-6.618 27.866-16.461 35.648-10.266 8.218-25.587 12.339-47.053 12.339-21.261 0-36.339-1.382-47.066-3.2v-151.949h34.496v55.078zM396.851 734.17c2.509 0.691 7.309 1.357 14.4 1.357 17.357 0 27.187-8.448 27.187-22.605 0-15.782-11.418-25.139-29.939-25.139-5.018 0-8.666 0.218-11.648 0.909v45.478zM522.598 606.669h34.957v124.749h42.048v29.248h-118.362v-29.248h41.357zM64 140.8h691.2v819.2h-691.2v-819.2zM115.2 908.8h588.8v-716.8h-588.8v716.8zM192 458.688h435.2v-51.2h-435.2v51.2zM192 383.13h435.2v-51.2h-435.2v51.2zM192 307.558h435.2v-51.2h-435.2v51.2z" />
<glyph unicode="&#xe909;" glyph-name="docx-file" horiz-adv-x="819" d="M268.966 627.904c11.84 10.125 20.416 26.496 20.416 50.214 0 21.888-8.026 37.158-20.762 46.707-11.853 9.011-26.97 13.261-50.291 13.261-14.016 0-27.328-0.934-37.517-2.573v-121.754c6.925-0.909 17.126-1.843 31.501-1.843 24.038-0.013 43.712 5.146 56.653 15.987zM208.653 715.456c2.381 0.55 6.374 1.114 12.582 1.114 23.859 0 38.797-13.619 38.618-39.36 0-29.427-16.192-43.405-41.075-43.405-0.154 0-0.32 0-0.474 0-3.456 0-7.283 0-9.651 0.55v81.101zM357.862 611.174c35.891 0 60.288 24.653 60.288 65.293 0 34.202-20.582 62.707-58.304 62.707-36.237 0-59.763-27.763-59.763-64.922 0.013-35.315 21.325-63.078 57.779-63.078zM359.13 716.915c19.136 0 29.709-19.136 29.709-41.382 0-24.090-10.752-42.112-29.517-42.112-18.586 0-29.888 17.114-29.888 41.382 0 24.090 10.931 42.112 29.696 42.112zM493.21 611.366c14.938 0 26.432 2.765 31.526 5.325l-4.186 21.888c-5.466-2.202-14.771-4.045-23.142-4.045-24.781 0-39.347 15.642-39.347 40.448 0 27.584 17.126 41.024 39.168 41.024 9.83 0 17.677-2.202 23.322-4.608l5.645 22.246c-4.915 2.573-15.846 5.517-30.246 5.517-37.171 0-67.046-23.539-67.046-65.83-0.013-35.302 21.862-61.965 64.307-61.965zM564.25 613.197l10.202 22.451c3.827 8.64 6.925 15.066 9.472 22.246h0.371c3.456-7.181 6.374-13.619 10.931-22.246l11.11-22.451h32.077l-36.454 63.45 34.624 60.493h-31.693l-10.381-22.605c-3.11-7.181-5.466-12.698-8.397-20.595h-0.358c-2.906 6.989-5.645 13.056-9.306 20.595l-10.739 22.605h-31.898l34.253-61.235-35.533-62.72h31.718zM64 960v-819.2h691.2v819.2h-691.2zM704 192h-588.8v716.8h588.8v-716.8zM192 458.688h435.2v-51.2h-435.2v51.2zM192 383.117h435.2v-51.2h-435.2v51.2zM192 307.558h435.2v-51.2h-435.2v51.2z" />
<glyph unicode="&#xe90a;" glyph-name="xls-file" horiz-adv-x="819" d="M265.408 606.669l12.8 27.866c4.8 10.739 8.691 18.739 11.891 27.648h0.448c4.352-8.909 8-16.909 13.709-27.648l13.939-27.866h40.218l-45.696 78.822 43.405 75.162h-39.757l-13.018-28.096c-3.891-8.909-6.848-15.782-10.509-25.6h-0.448c-3.661 8.691-7.091 16.218-11.661 25.6l-13.466 28.096h-40l42.957-76.070-44.544-77.914h39.731zM471.142 635.917h-61.235v124.749h-34.957v-153.997h96.192zM529.229 632.947c-14.848 0-29.248 4.8-38.605 9.6l-7.091-28.8c8.691-4.787 26.048-9.357 43.648-9.357 42.266 0 62.144 21.939 62.144 47.757 0 21.696-12.787 35.866-39.987 45.914-19.866 7.552-28.557 11.891-28.557 21.709 0 8 7.309 14.848 22.4 14.848 15.066 0 26.048-4.339 32.205-7.309l7.782 28.109c-9.139 4.109-21.939 7.757-39.309 7.757-36.314 0-58.253-20.096-58.253-46.387 0-22.387 16.666-36.557 42.266-45.466 18.509-6.618 25.818-12.109 25.818-21.696 0-10.061-8.461-16.678-24.461-16.678zM64 140.8h691.2v819.2h-691.2v-819.2zM115.2 908.8h588.8v-716.8h-588.8v716.8zM192 458.688h435.2v-51.2h-435.2v51.2zM192 383.13h435.2v-51.2h-435.2v51.2zM192 307.558h435.2v-51.2h-435.2v51.2z" />
<glyph unicode="&#xe90b;" glyph-name="eps-file" horiz-adv-x="819" d="M336.346 635.226h-63.27v36.57h56.653v28.326h-56.653v31.987h60.096v28.557h-95.053v-153.997h98.227zM392.41 661.747c3.2-0.461 7.309-0.691 11.891-0.691 20.557 0 38.157 5.018 50.022 16.218 9.139 8.666 14.182 21.466 14.182 36.557 0 15.066-6.618 27.866-16.461 35.648-10.266 8.218-25.587 12.339-47.066 12.339-21.248 0-36.314-1.382-47.053-3.2v-151.949h34.496v55.078zM392.41 734.17c2.509 0.691 7.309 1.357 14.4 1.357 17.357 0 27.187-8.448 27.187-22.605 0-15.782-11.418-25.139-29.939-25.139-5.018 0-8.666 0.218-11.648 0.909v45.478zM528.205 632.947c-14.861 0-29.248 4.8-38.618 9.6l-7.091-28.8c8.691-4.787 26.048-9.357 43.648-9.357 42.266 0 62.144 21.939 62.144 47.757 0 21.696-12.787 35.866-39.987 45.914-19.866 7.552-28.557 11.891-28.557 21.709 0 8 7.309 14.848 22.4 14.848 15.066 0 26.048-4.339 32.205-7.309l7.782 28.109c-9.139 4.109-21.939 7.757-39.296 7.757-36.339 0-58.266-20.096-58.266-46.387 0-22.387 16.666-36.557 42.266-45.466 18.509-6.618 25.818-12.109 25.818-21.696 0-10.061-8.474-16.678-24.448-16.678zM64 140.8h691.2v819.2h-691.2v-819.2zM115.2 908.8h588.8v-716.8h-588.8v716.8zM192 458.688h435.2v-51.2h-435.2v51.2zM192 383.13h435.2v-51.2h-435.2v51.2zM192 307.558h435.2v-51.2h-435.2v51.2z" />
<glyph unicode="&#xe90c;" glyph-name="zip-file" horiz-adv-x="819" d="M372.89 635.456h-72.896v0.909l71.731 104.205v20.096h-111.718v-28.787h66.496v-0.909l-73.357-105.562v-18.739h119.744zM392.602 760.666h34.957v-153.997h-34.957v153.997zM489.958 661.747c3.2-0.461 7.309-0.691 11.891-0.691 20.557 0 38.157 5.018 50.022 16.218 9.152 8.666 14.182 21.466 14.182 36.557 0 15.066-6.618 27.866-16.461 35.648-10.266 8.218-25.587 12.339-47.053 12.339-21.261 0-36.339-1.382-47.066-3.2v-151.949h34.496v55.078zM489.958 734.17c2.509 0.691 7.309 1.357 14.4 1.357 17.357 0 27.187-8.448 27.187-22.605 0-15.782-11.418-25.139-29.939-25.139-5.018 0-8.666 0.218-11.648 0.909v45.478zM64 140.8h691.2v819.2h-691.2v-819.2zM115.2 908.8h588.8v-716.8h-588.8v716.8zM192 458.688h435.2v-51.2h-435.2v51.2zM192 383.13h435.2v-51.2h-435.2v51.2zM192 307.558h435.2v-51.2h-435.2v51.2z" />
<glyph unicode="&#xe90d;" glyph-name="doc-file" horiz-adv-x="819" d="M308.352 624.947c14.848 12.57 25.587 32.896 25.587 62.387 0 27.187-10.048 46.144-26.048 58.022-14.848 11.2-33.805 16.461-63.053 16.461-17.6 0-34.291-1.139-47.066-3.2v-151.258c8.666-1.139 21.466-2.291 39.514-2.291 30.144 0 54.835 6.4 71.066 19.878zM232.717 733.709c2.957 0.678 7.987 1.37 15.757 1.37 29.939 0 48.666-16.909 48.448-48.896 0-36.787-20.582-54.157-52.096-53.926-4.352 0-9.152 0-12.109 0.691v100.762zM419.942 604.16c45.005 0 75.622 30.618 75.622 81.114 0 42.496-25.818 77.901-73.114 77.901-45.466 0-74.944-34.496-74.944-80.653 0-43.853 26.739-78.362 72.435-78.362zM421.542 735.539c24 0 37.248-23.757 37.248-51.405 0-29.939-13.491-52.326-37.018-52.326-23.296 0-37.466 21.248-37.466 51.405-0.013 29.939 13.696 52.326 37.235 52.326zM589.773 604.39c18.739 0 33.139 3.43 39.539 6.63l-5.261 27.187c-6.848-2.739-18.496-5.030-29.005-5.030-31.091 0-49.357 19.418-49.357 50.266 0 34.266 21.466 50.944 49.114 50.944 12.339 0 22.182-2.739 29.248-5.709l7.091 27.648c-6.182 3.2-19.866 6.861-37.939 6.861-46.605 0-84.070-29.248-84.070-81.792 0-43.878 27.418-77.005 80.64-77.005zM755.2 960h-691.2v-819.2h691.2v819.2zM704 192h-588.8v716.8h588.8v-716.8zM192 458.688h435.2v-51.2h-435.2v51.2zM192 383.13h435.2v-51.2h-435.2v51.2zM192 307.558h435.2v-51.2h-435.2v51.2z" />
<glyph unicode="&#xe90e;" glyph-name="pdf-file" horiz-adv-x="819" d="M255.578 661.747c3.2-0.461 7.309-0.691 11.891-0.691 20.557 0 38.157 5.018 50.022 16.218 9.152 8.678 14.182 21.478 14.182 36.557s-6.618 27.866-16.461 35.648c-10.266 8.218-25.587 12.339-47.053 12.339-21.261 0-36.339-1.37-47.066-3.2v-151.949h34.496v55.078zM255.578 734.17c2.509 0.691 7.309 1.37 14.4 1.37 17.357 0 27.187-8.461 27.187-22.618 0-15.77-11.418-25.139-29.939-25.139-5.018 0-8.666 0.218-11.648 0.909v45.478zM462.208 624.96c14.848 12.57 25.587 32.896 25.587 62.387 0 27.187-10.048 46.144-26.048 58.022-14.848 11.2-33.805 16.461-63.053 16.461-17.6 0-34.291-1.139-47.066-3.2v-151.27c8.666-1.139 21.466-2.291 39.514-2.291 30.144 0 54.835 6.4 71.066 19.891zM386.573 733.722c2.957 0.678 7.987 1.37 15.757 1.37 29.939 0 48.666-16.909 48.448-48.896 0-36.787-20.582-54.157-52.096-53.926-4.352 0-9.152 0-12.109 0.691v100.762zM543.411 668.595h55.296v28.326h-55.296v35.2h59.162v28.557h-94.118v-154.010h34.957zM755.2 960h-691.2v-819.2h691.2v819.2zM704 192h-588.8v716.8h588.8v-716.8zM192 458.688h435.2v-51.2h-435.2v51.2zM192 383.117h435.2v-51.2h-435.2v51.2zM192 307.558h435.2v-51.2h-435.2v51.2z" />
<glyph unicode="&#xe90f;" glyph-name="txt-file" horiz-adv-x="819" d="M258.893 606.669h34.97v124.749h42.035v29.248h-118.362v-29.248h41.357zM384.627 606.669l12.8 27.866c4.8 10.739 8.691 18.739 11.891 27.648h0.448c4.352-8.909 8-16.909 13.709-27.648l13.939-27.866h40.218l-45.696 78.822 43.405 75.162h-39.757l-13.018-28.096c-3.891-8.909-6.848-15.782-10.509-25.6h-0.448c-3.661 8.691-7.091 16.218-11.661 25.6l-13.466 28.096h-40l42.957-76.070-44.544-77.914h39.731zM525.222 606.669h34.957v124.749h42.048v29.248h-118.362v-29.248h41.357zM64 140.8h691.2v819.2h-691.2v-819.2zM115.2 908.8h588.8v-716.8h-588.8v716.8zM192 458.688h435.2v-51.2h-435.2v51.2zM192 383.13h435.2v-51.2h-435.2v51.2zM192 307.558h435.2v-51.2h-435.2v51.2z" />
<glyph unicode="&#xe910;" glyph-name="rss" d="M93.867 294.4c-21.333 4.267-46.933-12.8-51.2-34.133s8.533-46.933 34.133-51.2c68.267-12.8 119.467-64 132.267-132.267 4.267-21.333 21.333-34.133 42.667-34.133 4.267 0 4.267 0 8.533 0 21.333 4.267 38.4 25.6 34.133 51.2-21.333 102.4-98.133 179.2-200.533 200.533zM853.333 810.667h-682.667c-72.533 0-128-55.467-128-128v-85.333c0-25.6 17.067-42.667 42.667-42.667s42.667 17.067 42.667 42.667v85.333c0 25.6 17.067 42.667 42.667 42.667h682.667c25.6 0 42.667-17.067 42.667-42.667v-512c0-25.6-17.067-42.667-42.667-42.667h-256c-25.6 0-42.667-17.067-42.667-42.667s17.067-42.667 42.667-42.667h256c72.533 0 128 55.467 128 128v512c0 72.533-55.467 128-128 128zM89.6 465.067c-21.333 4.267-42.667-12.8-46.933-38.4-4.267-21.333 12.8-42.667 38.4-46.933 157.867-17.067 281.6-140.8 302.933-302.933 0-17.067 17.067-34.133 38.4-34.133 0 0 4.267 0 4.267 0 21.333 4.267 38.4 25.6 38.4 46.933-21.333 200.533-174.933 354.133-375.467 375.467zM55.467 115.2c-8.533-8.533-12.8-17.067-12.8-29.867s4.267-21.333 12.8-29.867c8.533-8.533 17.067-12.8 29.867-12.8s21.333 4.267 29.867 12.8c8.533 8.533 12.8 17.067 12.8 29.867s-4.267 21.333-12.8 29.867c-17.067 17.067-42.667 17.067-59.733 0z" />
<glyph unicode="&#xe911;" glyph-name="chevron-down" d="M797.867 584.534c-17.067 17.067-42.667 17.067-59.733 0l-226.133-226.133-226.133 226.133c-17.067 17.067-42.667 17.067-59.733 0s-17.067-42.667 0-59.733l256-256c8.533-8.533 21.333-12.8 29.867-12.8s21.333 4.267 29.867 12.8l256 256c17.067 17.067 17.067 42.667 0 59.733z" />
<glyph unicode="&#xe912;" glyph-name="home" d="M921.6 588.8l-384 298.667c-17.067 12.8-38.4 12.8-51.2 0l-384-298.667c-12.8-8.533-17.067-21.333-17.067-34.133v-469.333c0-72.533 55.467-128 128-128h597.333c72.533 0 128 55.467 128 128v469.333c0 12.8-4.267 25.6-17.067 34.133zM597.333 42.667h-170.667v341.333h170.667v-341.333zM853.333 85.334c0-25.6-17.067-42.667-42.667-42.667h-128v384c0 25.6-17.067 42.667-42.667 42.667h-256c-25.6 0-42.667-17.067-42.667-42.667v-384h-128c-25.6 0-42.667 17.067-42.667 42.667v448l341.333 264.533 341.333-264.533v-448z" />
<glyph unicode="&#xe913;" glyph-name="info" d="M512 896c-260.267 0-469.333-209.067-469.333-469.333s209.067-469.333 469.333-469.333 469.333 209.067 469.333 469.333-209.067 469.333-469.333 469.333zM512 42.667c-213.333 0-384 170.667-384 384s170.667 384 384 384c213.333 0 384-170.667 384-384s-170.667-384-384-384zM512 469.334c-25.6 0-42.667-17.067-42.667-42.667v-170.667c0-25.6 17.067-42.667 42.667-42.667s42.667 17.067 42.667 42.667v170.667c0 25.6-17.067 42.667-42.667 42.667zM482.133 627.2c-8.533-8.533-12.8-17.067-12.8-29.867s4.267-21.333 12.8-29.867c8.533-8.533 17.067-12.8 29.867-12.8s21.333 4.267 29.867 12.8c8.533 8.533 12.8 17.067 12.8 29.867s-4.267 21.333-12.8 29.867c-17.067 17.067-42.667 17.067-59.733 0z" />
<glyph unicode="&#xe914;" glyph-name="menu" d="M896 469.334h-768c-25.6 0-42.667-17.067-42.667-42.667s17.067-42.667 42.667-42.667h768c25.6 0 42.667 17.067 42.667 42.667s-17.067 42.667-42.667 42.667zM128 640h768c25.6 0 42.667 17.067 42.667 42.667s-17.067 42.667-42.667 42.667h-768c-25.6 0-42.667-17.067-42.667-42.667s17.067-42.667 42.667-42.667zM896 213.334h-768c-25.6 0-42.667-17.067-42.667-42.667s17.067-42.667 42.667-42.667h768c25.6 0 42.667 17.067 42.667 42.667s-17.067 42.667-42.667 42.667z" />
<glyph unicode="&#xe916;" glyph-name="play" d="M832 460.8l-597.333 384c-12.8 8.533-29.867 8.533-42.667 0-12.8-4.267-21.333-17.067-21.333-34.133v-768c0-17.067 8.533-29.867 21.333-38.4 8.533-4.267 12.8-4.267 21.333-4.267s17.067 4.267 21.333 8.533l597.333 384c12.8 8.533 21.333 21.333 21.333 34.133s-8.533 29.867-21.333 34.133zM256 119.467v614.4l477.867-307.2-477.867-307.2z" />
<glyph unicode="&#xe917;" glyph-name="favicon" d="M119.729-0.985v248.911l352.886 203.225-352.886 203.225v247.335c132.332-74.043 263.089-149.662 392.271-223.705s259.938-151.237 392.271-226.855c-132.332-77.194-263.089-152.812-392.271-226.855s-259.938-149.662-392.271-225.28z" />
<glyph unicode="&#xe918;" horiz-adv-x="4938" d="M184.009 158.245v160.112l227.025 130.24-227.025 130.24v160.112c84.835-47.795 168.476-95.589 252.117-144.579s167.281-96.784 252.117-145.774c-84.835-48.989-169.671-97.979-252.117-145.774s-167.281-95.589-252.117-144.579z" />
<glyph unicode="&#xe919;" glyph-name="life-sciences" horiz-adv-x="410" d="M39.233 966.234c0 0-9.922-25.958-17.5-57.933s-14.206-69.695-2.7-98.567c28.786-72.235 114.855-104.361 189.967-136.934 37.556-16.287 72.836-32.585 97.667-51.866s38.933-39.922 38.933-68.835c0-28.979-13.938-49.869-38.367-69.366-24.429-19.499-59.11-36.087-96-52.668-73.781-33.157-158.28-65.92-185.867-137.935-11.199-29.232-4.033-67.178 4.033-99.333s18.433-58.233 18.433-58.233l23.8 9.434c0 0-9.796 24.723-17.4 55.033s-11.615 66.49-4.933 83.932c22.020 57.481 98.049 90.354 172.4 123.767 37.175 16.707 73.48 33.635 101.5 55.999 28.020 22.366 48 51.7 48 89.368 0 37.736-20.355 66.953-48.833 89.066s-65.362 38.724-103.2 55.134c-75.676 32.817-153.338 65.229-176.333 122.933-6.83 17.138-3.339 53.043 3.8 83.168 7.139 30.123 16.533 54.733 16.533 54.733l-23.933 9.1zM370.367 966.234l-23.933-9.1c0 0 9.394-24.61 16.533-54.733s10.63-66.029 3.8-83.168c-22.995-57.704-100.657-90.115-176.333-122.933-37.838-16.41-74.722-33.021-103.2-55.134s-48.833-51.33-48.833-89.066c0-37.668 19.98-67.002 48-89.368 28.020-22.364 64.325-39.293 101.5-55.999 74.351-33.413 150.38-66.287 172.4-123.767 6.682-17.442 2.67-53.622-4.933-83.932s-17.4-55.033-17.4-55.033l23.8-9.434c0 0 10.367 26.080 18.433 58.233 8.066 32.155 15.232 70.101 4.033 99.333-27.587 72.013-112.086 104.777-185.867 137.935-36.89 16.579-71.571 33.167-96 52.666s-38.367 40.388-38.367 69.367c0 28.911 14.103 49.553 38.933 68.833s60.111 35.579 97.667 51.866c75.112 32.573 161.18 64.7 189.967 136.934 11.506 28.872 4.878 66.592-2.7 98.567s-17.5 57.933-17.5 57.933zM153.6 616.1c-0.054 0.001-0.117 0.001-0.181 0.001-7.070 0-12.801-5.731-12.801-12.801s5.731-12.801 12.801-12.801c0.064 0 0.127 0 0.191 0.001h102.39c0.054-0.001 0.117-0.001 0.181-0.001 7.070 0 12.801 5.731 12.801 12.801s-5.731 12.801-12.801 12.801c-0.064 0-0.127 0-0.191-0.001h-102.39zM114 564.801c-0.054 0.001-0.117 0.001-0.181 0.001-7.070 0-12.801-5.731-12.801-12.801s5.731-12.801 12.801-12.801c0.064 0 0.127 0 0.191 0.001h181.59c0.054-0.001 0.117-0.001 0.181-0.001 7.070 0 12.801 5.731 12.801 12.801s-5.731 12.801-12.801 12.801c-0.064 0-0.127 0-0.191-0.001h-181.59zM153.6 513.7c-0.054 0.001-0.117 0.001-0.181 0.001-7.070 0-12.801-5.731-12.801-12.801s5.731-12.801 12.801-12.801c0.064 0 0.127 0 0.191 0.001h102.39c0.054-0.001 0.117-0.001 0.181-0.001 7.070 0 12.801 5.731 12.801 12.801s-5.731 12.801-12.801 12.801c-0.064 0-0.127 0-0.191-0.001h-102.39zM153.6 897.7c-0.054 0.001-0.117 0.001-0.181 0.001-7.070 0-12.801-5.731-12.801-12.801s5.731-12.801 12.801-12.801c0.064 0 0.127 0 0.191 0.001h102.39c0.054-0.001 0.117-0.001 0.181-0.001 7.070 0 12.801 5.731 12.801 12.801s-5.731 12.801-12.801 12.801c-0.064 0-0.127 0-0.191-0.001h-102.39zM114 846.399c-0.054 0.001-0.117 0.001-0.181 0.001-7.070 0-12.801-5.731-12.801-12.801s5.731-12.801 12.801-12.801c0.064 0 0.127 0 0.191 0.001h181.59c0.054-0.001 0.117-0.001 0.181-0.001 7.070 0 12.801 5.731 12.801 12.801s-5.731 12.801-12.801 12.801c-0.064 0-0.127 0-0.191-0.001h-181.59zM153.6 795.3c-0.054 0.001-0.117 0.001-0.181 0.001-7.070 0-12.801-5.731-12.801-12.801s5.731-12.801 12.801-12.801c0.064 0 0.127 0 0.191 0.001h102.39c0.054-0.001 0.117-0.001 0.181-0.001 7.070 0 12.801 5.731 12.801 12.801s-5.731 12.801-12.801 12.801c-0.064 0-0.127 0-0.191-0.001h-102.39zM153.6 334.5c-0.054 0.001-0.117 0.001-0.181 0.001-7.070 0-12.801-5.731-12.801-12.801s5.731-12.801 12.801-12.801c0.064 0 0.127 0 0.191 0.001h102.39c0.054-0.001 0.117-0.001 0.181-0.001 7.070 0 12.801 5.731 12.801 12.801s-5.731 12.801-12.801 12.801c-0.064 0-0.127 0-0.191-0.001h-102.39zM114 283.201c-0.054 0.001-0.117 0.001-0.181 0.001-7.070 0-12.801-5.731-12.801-12.801s5.731-12.801 12.801-12.801c0.064 0 0.127 0 0.191 0.001h181.59c0.054-0.001 0.117-0.001 0.181-0.001 7.070 0 12.801 5.731 12.801 12.801s-5.731 12.801-12.801 12.801c-0.064 0-0.127 0-0.191-0.001h-181.59zM153.6 232.1c-0.054 0.001-0.117 0.001-0.181 0.001-7.070 0-12.801-5.731-12.801-12.801s5.731-12.801 12.801-12.801c0.064 0 0.127 0 0.191 0.001h102.39c0.054-0.001 0.117-0.001 0.181-0.001 7.070 0 12.801 5.731 12.801 12.801s-5.731 12.801-12.801 12.801c-0.064 0-0.127 0-0.191-0.001h-102.39z" />
<glyph unicode="&#xe91a;" glyph-name="fintech" horiz-adv-x="819" d="M141.154 478.562c16.384 0 28.987 12.603 28.987 28.987s-12.603 28.987-28.987 28.987c-16.384 0-28.987-12.603-28.987-28.987s12.603-28.987 28.987-28.987zM141.154 516.372c5.041 0 10.082-5.041 10.082-10.082s-5.041-10.082-10.082-10.082-10.082 5.041-10.082 10.082c0 6.302 3.781 10.082 10.082 10.082zM787.692 839.010h-36.549v23.946c0 20.165-16.384 36.549-35.289 39.070-3.781 22.686-22.686 40.33-46.631 40.33h-322.639c-26.466 0-46.631-21.425-46.631-46.631v-55.454h-268.446c-18.905 0-34.028-15.124-34.028-34.028v-521.767c0-18.905 15.124-34.028 34.028-34.028h273.487l-47.892-71.838h-50.412v-18.905h405.819v18.905h-50.412l-47.892 71.838h273.487c18.905 0 34.028 15.124 34.028 34.028v520.507c0 18.905-15.124 34.028-34.028 34.028zM715.855 733.145v148.716c8.822-1.26 16.384-10.082 16.384-20.165v-173.922c0-11.343-8.822-20.165-20.165-20.165h-332.721c-10.082 0-17.644 7.562-20.165 16.384h310.036c25.206 1.26 46.631 22.686 46.631 49.152zM318.858 894.464c0 15.124 12.603 27.727 27.727 27.727h322.639c15.124 0 27.727-12.603 27.727-27.727v-161.319c0-15.124-12.603-27.727-27.727-27.727h-322.639c-15.124 0-27.727 12.603-27.727 27.727v161.319zM31.508 820.106h267.185v-88.222c0-23.946 17.644-42.85 40.33-46.631 1.26-20.165 17.644-35.289 39.070-35.289h155.018v-75.618c0-71.838-57.974-128.551-128.551-128.551-71.838 0-128.551 57.974-128.551 128.551v55.454c0 40.33-32.768 71.838-71.838 71.838-40.33 0-71.838-32.768-71.838-71.838v-61.755h-23.946c-22.686 0-40.33-18.905-40.33-40.33v-119.729c0-22.686 18.905-40.33 40.33-40.33h64.276c22.686 0 40.33 18.905 40.33 40.33v119.729c0 22.686-18.905 40.33-40.33 40.33h-22.686v61.755c0 28.987 23.946 52.933 52.933 52.933s52.933-23.946 52.933-52.933v-55.454c0-81.92 66.796-147.456 147.456-147.456 81.92 0 147.456 66.796 147.456 147.456v75.618h158.799c21.425 0 39.070 17.644 39.070 39.070v131.072h36.549c8.822 0 15.124-7.562 15.124-15.124v-466.314h-783.911v466.314c0 8.822 6.302 15.124 15.124 15.124zM172.662 549.14c12.603 0 21.425-10.082 21.425-21.425v-119.729c0-12.603-10.082-21.425-21.425-21.425h-64.276c-12.603 0-21.425 10.082-21.425 21.425v119.729c0 12.603 10.082 21.425 21.425 21.425h64.276zM539.412 177.349h-259.623l47.892 71.838h163.84l47.892-71.838zM787.692 268.091h-756.185c-8.822 0-15.124 7.562-15.124 15.124v36.549h786.432v-36.549c0-8.822-6.302-15.124-15.124-15.124zM500.342 792.379c-1.26 1.26-2.521 2.521-2.521 5.041h-18.905c0-7.562 3.781-13.863 8.822-18.905 2.521-2.521 6.302-5.041 10.082-6.302v-10.082h18.905v10.082c3.781 1.26 7.562 2.521 10.082 5.041 5.041 5.041 8.822 11.343 8.822 18.905s-3.781 13.863-8.822 18.905c-5.041 5.041-12.603 7.562-20.165 7.562-2.521 0-5.041 1.26-7.562 2.521-1.26 1.26-2.521 2.521-2.521 5.041s1.26 3.781 2.521 5.041c3.781 3.781 11.343 3.781 15.124 0 1.26-1.26 2.521-2.521 2.521-5.041h18.905c0 7.562-3.781 13.863-8.822 18.905-2.521 2.521-6.302 3.781-10.082 5.041v10.082h-18.905v-10.082c-3.781-1.26-7.562-2.521-10.082-5.041-5.041-5.041-8.822-11.343-8.822-18.905s3.781-13.863 8.822-18.905c5.041-5.041 12.603-7.562 20.165-7.562 2.521 0 5.041-1.26 7.562-2.521 1.26-1.26 2.521-2.521 2.521-5.041s-1.26-3.781-2.521-5.041c-3.781-2.521-11.343-2.521-15.124 1.26zM384.394 741.967v-8.822h247.020v8.822c0 15.124 12.603 27.727 27.727 27.727h8.822v88.222h-8.822c-15.124 0-27.727 12.603-27.727 27.727v10.082h-247.020v-8.822c0-15.124-12.603-27.727-27.727-27.727h-8.822v-86.961h8.822c15.124-2.521 27.727-15.124 27.727-30.247zM365.489 839.010c18.905 3.781 32.768 18.905 36.549 36.549h211.732c3.781-18.905 18.905-32.768 36.549-36.549v-51.673c-18.905-3.781-32.768-18.905-36.549-36.549h-211.732c-3.781 18.905-18.905 32.768-36.549 36.549v51.673z" />
<glyph unicode="&#xe91b;" horiz-adv-x="4938" d="M1364.537 184.532c-7.169-4.779-16.728-9.559-28.677-16.728s-26.287-11.949-43.015-17.923c-16.728-5.974-35.846-9.559-56.159-13.144-21.508-3.585-43.015-5.974-66.912-5.974-48.989 0-93.2 8.364-131.435 25.092s-71.692 39.431-97.979 68.107-46.6 62.133-60.938 99.174c-14.338 38.236-21.508 77.666-21.508 120.681 0 46.6 8.364 89.615 25.092 129.046s40.625 74.082 69.302 102.758c28.677 28.677 63.328 51.379 102.758 66.912s80.056 23.897 124.266 23.897c16.728 0 34.651-1.195 51.379-3.585s33.456-5.974 48.989-9.559c15.533-3.585 28.677-8.364 40.625-13.144s20.313-10.754 25.092-16.728c-4.779-8.364-9.559-14.338-11.949-19.118s-5.974-10.754-8.364-15.533c-3.585-5.974-5.974-11.949-10.754-17.923-3.585-7.169-8.364-16.728-15.533-28.677-7.169 4.779-15.533 8.364-25.092 11.949s-20.313 5.974-29.872 8.364c-10.754 2.39-21.508 3.585-32.261 4.779s-20.313 1.195-28.677 1.195c-32.261 0-60.938-5.974-88.42-17.923s-50.184-27.482-70.497-47.795c-19.118-19.118-34.651-43.015-46.6-68.107-10.754-26.287-16.728-52.574-16.728-81.251 0-27.482 4.779-53.769 15.533-80.056s25.092-48.989 44.21-68.107c19.118-20.313 41.82-35.846 68.107-47.795s54.964-17.923 87.225-17.923c17.923 0 35.846 2.39 52.574 5.974s32.261 8.364 45.405 11.949c13.144 4.779 23.897 9.559 32.261 13.144 8.364 4.779 13.144 7.169 13.144 9.559l45.405-95.589z" />
<glyph unicode="&#xe91c;" horiz-adv-x="4938" d="M1824.56 137.932c-1.195 3.585-4.779 10.754-8.364 21.508-4.779 10.754-9.559 22.702-15.533 37.041s-13.144 31.067-20.313 48.989c-7.169 17.923-15.533 37.041-22.702 56.159h-213.881l-68.107-163.697h-102.758c2.39 4.779 7.169 17.923 16.728 38.236 8.364 20.313 19.118 45.405 32.261 75.277s27.482 63.328 43.015 99.174c15.533 37.041 31.067 74.082 47.795 112.317s32.261 75.277 47.795 112.317c15.533 37.041 29.872 69.302 43.015 99.174s23.897 54.964 32.261 75.277c8.364 20.313 14.338 32.261 16.728 38.236 2.39-4.779 8.364-17.923 16.728-38.236s19.118-45.405 32.261-75.277c13.144-29.872 27.482-63.328 43.015-99.174 15.533-37.041 31.067-74.082 47.795-112.317s32.261-75.277 47.795-112.317c15.533-37.041 29.872-70.497 43.015-99.174 13.144-29.872 23.897-54.964 32.261-75.277s14.338-32.261 16.728-38.236h-107.538zM1578.418 388.854h140.994l-60.938 148.163c0 0-2.39 4.779-4.779 11.949s-3.585 13.144-4.779 19.118c-1.195-5.974-2.39-11.949-4.779-19.118s-3.585-10.754-3.585-11.949l-62.133-148.163z" />
<glyph unicode="&#xe91d;" horiz-adv-x="4938" d="M2547.454 759.263v-650.007c-3.585 4.779-13.144 14.338-26.287 28.677-13.144 13.144-29.872 29.872-50.184 48.989s-41.82 40.625-65.718 63.328c-23.897 22.702-48.989 46.6-74.082 69.302-25.092 23.897-48.989 46.6-72.887 69.302s-45.405 44.21-65.718 62.133c-19.118 19.118-35.846 34.651-48.989 48.989-13.144 13.144-21.508 22.702-26.287 27.482 0 1.195-2.39 3.585-7.169 8.364-3.585 4.779-7.169 9.559-10.754 13.144l2.39-27.482v-384.747h-103.953v650.007c3.585-4.779 13.144-14.338 26.287-27.482s29.872-29.872 50.184-47.795c20.313-19.118 41.82-39.431 65.718-60.938 23.897-22.702 48.989-44.21 74.082-68.107 25.092-22.702 48.989-45.405 72.887-68.107s45.405-43.015 65.718-60.938c20.313-17.923 37.041-34.651 50.184-47.795s21.508-22.702 26.287-27.482l16.728-23.897-2.39 28.677v376.383h103.953z" />
<glyph unicode="&#xe91e;" horiz-adv-x="4938" d="M3063.636 759.263v-99.174h-152.943v-522.156h-105.148v520.961h-150.553v99.174h408.644z" />
<glyph unicode="&#xe91f;" horiz-adv-x="4938" d="M3171.174 137.932v621.33h412.229v-94.394h-308.275v-167.281h274.819v-96.784h-274.819v-164.891h320.224v-96.784h-424.177z" />
<glyph unicode="&#xe920;" horiz-adv-x="4938" d="M4154.548 184.532c-7.169-4.779-16.728-9.559-28.677-16.728s-26.287-11.949-43.015-17.923c-16.728-5.974-35.846-9.559-56.159-13.144-21.508-3.585-43.015-5.974-66.912-5.974-48.989 0-93.2 8.364-131.435 25.092s-71.692 39.431-97.979 68.107c-26.287 28.677-46.6 62.133-60.938 99.174-14.338 38.236-21.508 77.666-21.508 120.681 0 46.6 8.364 89.615 25.092 129.046s40.625 74.082 69.302 102.758c28.677 28.677 63.328 51.379 102.758 66.912s80.056 23.897 124.266 23.897c16.728 0 34.651-1.195 51.379-3.585s33.456-5.974 48.989-9.559c15.533-3.585 28.677-8.364 40.625-13.144s20.313-10.754 25.092-16.728c-4.779-8.364-9.559-14.338-11.949-19.118s-5.974-10.754-8.364-15.533-5.974-11.949-10.754-17.923c-3.585-7.169-8.364-16.728-15.533-28.677-7.169 4.779-15.533 8.364-25.092 11.949s-20.313 5.974-29.872 8.364c-10.754 2.39-21.508 3.585-32.261 4.779s-20.313 1.195-28.677 1.195c-32.261 0-60.938-5.974-88.42-17.923s-50.184-27.482-70.497-47.795c-19.118-19.118-34.651-43.015-46.6-68.107-10.754-26.287-16.728-52.574-16.728-81.251 0-27.482 4.779-53.769 15.533-80.056s25.092-48.989 44.21-68.107c19.118-20.313 41.82-35.846 68.107-47.795s54.964-17.923 87.225-17.923c17.923 0 35.846 2.39 52.574 5.974s32.261 8.364 45.405 11.949c13.144 4.779 23.897 9.559 32.261 13.144 8.364 4.779 13.144 7.169 13.144 9.559l45.405-95.589z" />
<glyph unicode="&#xe921;" horiz-adv-x="4938" d="M4232.215 137.932v621.33h105.148v-259.286h296.327v259.286h105.148c0-7.169 0-26.287 0-57.354s0-69.302 0-112.317c0-44.21 0-90.81 0-140.994s0-96.784 0-140.994c0-44.21 0-81.251 0-112.317s0-50.184 0-57.354h-105.148v262.87h-296.327v-262.87h-105.148z" />
<glyph unicode="&#xe922;" horiz-adv-x="8415" d="M199.543 158.245v160.112l227.025 130.24-227.025 130.24v160.112c84.835-47.795 168.476-95.589 252.117-144.579s167.281-96.784 252.117-145.774c-84.835-48.989-168.476-97.979-252.117-145.774s-167.281-95.589-252.117-144.579z" />
<glyph unicode="&#xe923;" horiz-adv-x="8415" d="M1380.070 184.532c-7.169-4.779-16.728-9.559-28.677-16.728s-26.287-11.949-43.015-17.923c-16.728-5.974-35.846-9.559-56.159-13.144-21.508-3.585-43.015-5.974-66.912-5.974-48.989 0-92.005 8.364-131.435 25.092s-71.692 39.431-97.979 68.107c-26.287 28.677-46.6 62.133-60.938 99.174-14.338 38.236-21.508 77.666-21.508 119.487 0 46.6 8.364 89.615 25.092 129.046s40.625 74.082 69.302 102.758c28.677 28.677 63.328 51.379 102.758 66.912s80.056 23.897 124.266 23.897c16.728 0 34.651-1.195 51.379-3.585s33.456-5.974 48.989-9.559 28.677-8.364 40.625-13.144c11.949-4.779 20.313-10.754 25.092-16.728-4.779-8.364-9.559-14.338-11.949-19.118s-5.974-10.754-8.364-15.533c-3.585-5.974-5.974-11.949-10.754-17.923-3.585-7.169-8.364-16.728-15.533-28.677-7.169 4.779-15.533 8.364-25.092 11.949s-20.313 5.974-29.872 8.364c-10.754 2.39-21.508 3.585-32.261 4.779s-20.313 1.195-28.677 1.195c-32.261 0-60.938-5.974-88.42-17.923s-50.184-27.482-69.302-47.795c-19.118-19.118-34.651-43.015-45.405-68.107-10.754-26.287-16.728-52.574-16.728-81.251 0-27.482 4.779-53.769 15.533-80.056s25.092-48.989 44.21-68.107c19.118-20.313 41.82-35.846 68.107-47.795s54.964-17.923 87.225-17.923c17.923 0 35.846 2.39 52.574 5.974s32.261 8.364 45.405 11.949c13.144 4.779 23.897 9.559 32.261 13.144 8.364 4.779 13.144 7.169 13.144 9.559l43.015-94.394z" />
<glyph unicode="&#xe924;" horiz-adv-x="8415" d="M1838.898 137.932c-1.195 3.585-4.779 10.754-8.364 21.508-4.779 10.754-9.559 22.702-15.533 37.041s-13.144 31.067-20.313 48.989c-7.169 17.923-15.533 37.041-22.702 56.159h-213.881l-68.107-163.697h-103.953c2.39 4.779 7.169 17.923 16.728 38.236 8.364 20.313 19.118 45.405 32.261 75.277s27.482 63.328 43.015 99.174c15.533 37.041 31.067 74.082 47.795 112.317s32.261 75.277 47.795 112.317c15.533 37.041 29.872 69.302 43.015 99.174s23.897 54.964 32.261 75.277c8.364 20.313 14.338 32.261 16.728 38.236 2.39-4.779 8.364-17.923 16.728-38.236s19.118-45.405 32.261-75.277c13.144-29.872 27.482-63.328 43.015-99.174 15.533-37.041 31.067-74.082 47.795-112.317s32.261-75.277 47.795-112.317c15.533-37.041 29.872-69.302 43.015-99.174s23.897-54.964 32.261-75.277c8.364-20.313 14.338-32.261 16.728-38.236h-106.343zM1592.756 388.854h140.994l-60.938 148.163c0 0-2.39 4.779-4.779 11.949s-3.585 13.144-4.779 19.118c-1.195-5.974-2.39-11.949-4.779-19.118s-3.585-10.754-3.585-11.949l-62.133-148.163z" />
<glyph unicode="&#xe925;" horiz-adv-x="8415" d="M2561.792 759.263v-650.007c-3.585 4.779-13.144 14.338-26.287 28.677-13.144 13.144-29.872 29.872-50.184 48.989s-41.82 39.431-65.718 63.328c-23.897 22.702-48.989 46.6-74.082 69.302-25.092 23.897-48.989 46.6-72.887 69.302s-45.405 43.015-65.718 62.133c-19.118 19.118-35.846 34.651-48.989 48.989-13.144 13.144-21.508 22.702-26.287 27.482 0 1.195-2.39 3.585-7.169 8.364-3.585 4.779-7.169 9.559-10.754 13.144l2.39-27.482v-383.552h-103.953v648.812c3.585-4.779 13.144-14.338 26.287-27.482s29.872-29.872 50.184-47.795c20.313-19.118 41.82-39.431 65.718-60.938 23.897-22.702 48.989-44.21 74.082-68.107 25.092-22.702 48.989-45.405 72.887-68.107s45.405-43.015 65.718-60.938c20.313-17.923 37.041-34.651 50.184-47.795s21.508-22.702 26.287-27.482l16.728-23.897-2.39 28.677v376.383h103.953z" />
<glyph unicode="&#xe926;" horiz-adv-x="8415" d="M3077.974 759.263v-99.174h-152.943v-520.961h-105.148v519.767h-149.358v99.174h407.449z" />
<glyph unicode="&#xe927;" horiz-adv-x="8415" d="M3184.317 137.932v621.33h412.229v-94.394h-308.275v-167.281h273.624v-96.784h-273.624v-164.891h320.224v-96.784h-424.177z" />
<glyph unicode="&#xe928;" horiz-adv-x="8415" d="M4168.887 184.532c-7.169-4.779-16.728-9.559-28.677-16.728s-26.287-11.949-43.015-17.923c-16.728-5.974-35.846-9.559-56.159-13.144-21.508-3.585-43.015-5.974-66.912-5.974-48.989 0-92.005 8.364-131.435 25.092-38.236 16.728-71.692 39.431-97.979 68.107s-46.6 62.133-60.938 99.174c-14.338 38.236-21.508 77.666-21.508 119.487 0 46.6 8.364 89.615 25.092 129.046s40.625 74.082 69.302 102.758c28.677 28.677 63.328 51.379 102.758 66.912s80.056 23.897 124.266 23.897c16.728 0 34.651-1.195 51.379-3.585s33.456-5.974 48.989-9.559c15.533-3.585 28.677-8.364 40.625-13.144s20.313-10.754 25.092-16.728c-4.779-8.364-9.559-14.338-11.949-19.118s-5.974-10.754-8.364-15.533-5.974-11.949-10.754-17.923c-3.585-7.169-8.364-16.728-15.533-28.677-7.169 4.779-15.533 8.364-25.092 11.949s-20.313 5.974-29.872 8.364c-10.754 2.39-21.508 3.585-32.261 4.779s-20.313 1.195-28.677 1.195c-32.261 0-60.938-5.974-88.42-17.923s-50.184-27.482-69.302-47.795c-19.118-19.118-34.651-43.015-45.405-68.107-10.754-26.287-16.728-52.574-16.728-81.251 0-27.482 4.779-53.769 15.533-80.056s25.092-48.989 44.21-68.107c19.118-20.313 41.82-35.846 68.107-47.795s54.964-17.923 87.225-17.923c17.923 0 35.846 2.39 52.574 5.974s32.261 8.364 45.405 11.949c13.144 4.779 23.897 9.559 32.261 13.144 8.364 4.779 13.144 7.169 13.144 9.559l43.015-94.394z" />
<glyph unicode="&#xe929;" horiz-adv-x="8415" d="M4245.358 137.932v621.33h105.148v-259.286h296.327v259.286h105.148c0-7.169 0-26.287 0-57.354s0-69.302 0-112.317c0-44.21 0-90.81 0-140.994s0-96.784 0-140.994c0-44.21 0-81.251 0-112.317s0-50.184 0-57.354h-105.148v262.87h-296.327v-262.87h-105.148z" />
<glyph unicode="&#xe92a;" horiz-adv-x="8415" d="M5249.046 137.932v621.33h103.953v-522.156h301.106v-99.174h-405.060z" />
<glyph unicode="&#xe92b;" horiz-adv-x="8415" d="M5738.94 137.932v621.33h412.229v-94.394h-308.275v-167.281h274.819v-96.784h-274.819v-164.891h320.224v-96.784h-424.177z" />
<glyph unicode="&#xe92c;" horiz-adv-x="8415" d="M6638.674 759.263v-99.174h-152.943v-520.961h-105.148v520.961h-149.358v99.174h407.449z" />
<glyph unicode="&#xe92d;" horiz-adv-x="8415" d="M7119.011 759.263v-99.174h-152.943v-520.961h-105.148v520.961h-149.358v99.174h407.449z" />
<glyph unicode="&#xe92e;" horiz-adv-x="8415" d="M7226.548 137.932v621.33h412.229v-94.394h-308.275v-167.281h274.819v-96.784h-274.819v-164.891h320.224v-96.784h-424.177z" />
<glyph unicode="&#xe92f;" horiz-adv-x="8415" d="M7753.484 137.932v621.33h175.645c34.651 0 65.718-4.779 93.2-13.144 28.677-9.559 52.574-22.702 71.692-39.431s34.651-38.236 45.405-63.328c10.754-25.092 16.728-52.574 16.728-84.835 0-16.728-1.195-34.651-4.779-51.379s-8.364-33.456-16.728-48.989c-7.169-15.533-16.728-31.067-28.677-44.21s-26.287-25.092-43.015-34.651c11.949-20.313 25.092-39.431 37.041-58.548s23.897-38.236 35.846-57.354c11.949-19.118 25.092-39.431 38.236-59.743s27.482-43.015 43.015-66.912h-125.461c-25.092 39.431-50.184 77.666-72.887 112.317-22.702 35.846-44.21 69.302-65.718 100.369h-95.589v-213.881h-103.953zM7857.438 449.792h83.641c21.508 0 39.431 3.585 53.769 10.754s25.092 16.728 34.651 26.287 14.338 21.508 17.923 34.651c3.585 11.949 4.779 23.897 4.779 33.456s-1.195 20.313-4.779 32.261c-3.585 11.949-8.364 23.897-16.728 34.651s-19.118 20.313-33.456 27.482c-14.338 7.169-32.261 10.754-54.964 10.754h-84.835v-210.296z" />
<glyph unicode="&#xe930;" glyph-name="chevron-up" d="M797.867 328.534l-256 256c-17.067 17.067-42.667 17.067-59.733 0l-256-256c-17.067-17.067-17.067-42.667 0-59.733s42.667-17.067 59.733 0l226.133 226.133 226.133-226.133c8.533-8.533 21.333-12.8 29.867-12.8s21.333 4.267 29.867 12.8c17.067 17.067 17.067 42.667 0 59.733z" />
<glyph unicode="&#xf003;" glyph-name="email-envelope" d="M950.857 91.428v438.857c-12-13.714-25.143-26.286-39.429-37.714-81.714-62.857-164-126.857-243.429-193.143-42.857-36-96-80-155.429-80h-1.143c-59.429 0-112.571 44-155.429 80-79.429 66.286-161.714 130.286-243.429 193.143-14.286 11.429-27.429 24-39.429 37.714v-438.857c0-9.714 8.571-18.286 18.286-18.286h841.143c9.714 0 18.286 8.571 18.286 18.286zM950.857 692c0 14.286 3.429 39.429-18.286 39.429h-841.143c-9.714 0-18.286-8.571-18.286-18.286 0-65.143 32.571-121.714 84-162.286 76.571-60 153.143-120.571 229.143-181.143 30.286-24.571 85.143-77.143 125.143-77.143h1.143c40 0 94.857 52.571 125.143 77.143 76 60.571 152.571 121.143 229.143 181.143 37.143 29.143 84 92.571 84 141.143zM1024 713.143v-621.714c0-50.286-41.143-91.429-91.429-91.429h-841.143c-50.286 0-91.429 41.143-91.429 91.429v621.714c0 50.286 41.143 91.429 91.429 91.429h841.143c50.286 0 91.429-41.143 91.429-91.429z" />
<glyph unicode="&#xf087;" glyph-name="facebook-like" horiz-adv-x="878" d="M146.286 182.857c0 20-16.571 36.571-36.571 36.571s-36.571-16.571-36.571-36.571 16.571-36.571 36.571-36.571 36.571 16.571 36.571 36.571zM804.571 512c0 38.857-34.857 73.143-73.143 73.143h-201.143c0 66.857 54.857 115.429 54.857 182.857 0 66.857-13.143 109.714-91.429 109.714-36.571-37.143-17.714-124.571-73.143-182.857-16-16.571-29.714-34.286-44-52-25.714-33.143-93.714-130.857-138.857-130.857h-18.286v-365.714h18.286c32 0 84.571-20.571 115.429-31.429 62.857-21.714 128-41.714 195.429-41.714h69.143c64.571 0 109.714 25.714 109.714 95.429 0 10.857-1.143 21.714-2.857 32 24 13.143 37.143 45.714 37.143 72 0 13.714-3.429 27.429-10.286 39.429 19.429 18.286 30.286 41.143 30.286 68 0 18.286-8 45.143-20 58.857 26.857 0.571 42.857 52 42.857 73.143zM877.714 512.571c0-33.143-9.714-65.714-28-93.143 3.429-12.571 5.143-26.286 5.143-39.429 0-28.571-7.429-57.143-21.714-82.286 1.143-8 1.714-16.571 1.714-24.571 0-36.571-12-73.143-34.286-101.714 1.143-108-72.571-171.429-178.286-171.429h-73.714c-81.143 0-156.571 24-232 50.286-16.571 5.714-62.857 22.857-78.857 22.857h-164.571c-40.571 0-73.143 32.571-73.143 73.143v365.714c0 40.571 32.571 73.143 73.143 73.143h156.571c22.286 14.857 61.143 66.286 78.286 88.571 19.429 25.143 39.429 49.714 61.143 73.143 34.286 36.571 16 126.857 73.143 182.857 13.714 13.143 32 21.143 51.429 21.143 59.429 0 116.571-21.143 144.571-76.571 17.714-34.857 20-68 20-106.286 0-40-10.286-74.286-27.429-109.714h100.571c78.857 0 146.286-66.857 146.286-145.714z" />
<glyph unicode="&#xf099;" glyph-name="twitter-bird" horiz-adv-x="951" d="M925.714 717.714c-25.143-36.571-56.571-69.143-92.571-95.429 0.571-8 0.571-16 0.571-24 0-244-185.714-525.143-525.143-525.143-104.571 0-201.714 30.286-283.429 82.857 14.857-1.714 29.143-2.286 44.571-2.286 86.286 0 165.714 29.143 229.143 78.857-81.143 1.714-149.143 54.857-172.571 128 11.429-1.714 22.857-2.857 34.857-2.857 16.571 0 33.143 2.286 48.571 6.286-84.571 17.143-148 91.429-148 181.143v2.286c24.571-13.714 53.143-22.286 83.429-23.429-49.714 33.143-82.286 89.714-82.286 153.714 0 34.286 9.143 65.714 25.143 93.143 90.857-112 227.429-185.143 380.571-193.143-2.857 13.714-4.571 28-4.571 42.286 0 101.714 82.286 184.571 184.571 184.571 53.143 0 101.143-22.286 134.857-58.286 41.714 8 81.714 23.429 117.143 44.571-13.714-42.857-42.857-78.857-81.143-101.714 37.143 4 73.143 14.286 106.286 28.571z" />
<glyph unicode="&#xf09a;" glyph-name="facebook-f" horiz-adv-x="602" d="M548 944v-150.857h-89.714c-70.286 0-83.429-33.714-83.429-82.286v-108h167.429l-22.286-169.143h-145.143v-433.714h-174.857v433.714h-145.714v169.143h145.714v124.571c0 144.571 88.571 223.429 217.714 223.429 61.714 0 114.857-4.571 130.286-6.857z" />
<glyph unicode="&#xf0d2;" glyph-name="pinterest" horiz-adv-x="878" d="M877.714 438.857c0-242.286-196.571-438.857-438.857-438.857-43.429 0-84.571 6.286-124.571 18.286 16.571 26.286 35.429 60 44.571 93.714 0 0 5.143 19.429 30.857 120.571 14.857-29.143 59.429-54.857 106.857-54.857 141.143 0 237.143 128.571 237.143 301.143 0 129.714-110.286 251.429-278.286 251.429-208 0-313.143-149.714-313.143-274.286 0-75.429 28.571-142.857 89.714-168 9.714-4 18.857 0 21.714 11.429 2.286 7.429 6.857 26.857 9.143 34.857 2.857 11.429 1.714 14.857-6.286 24.571-17.714 21.143-29.143 48-29.143 86.286 0 110.857 82.857 210.286 216 210.286 117.714 0 182.857-72 182.857-168.571 0-126.286-56-233.143-139.429-233.143-45.714 0-80 37.714-69.143 84.571 13.143 55.429 38.857 115.429 38.857 155.429 0 36-19.429 66.286-59.429 66.286-46.857 0-84.571-48.571-84.571-113.714 0 0 0-41.714 14.286-69.714-48-203.429-56.571-238.857-56.571-238.857-8-33.143-8.571-70.286-7.429-101.143-154.857 68-262.857 222.286-262.857 402.286 0 242.286 196.571 438.857 438.857 438.857s438.857-196.571 438.857-438.857z" />
<glyph unicode="&#xf0d5;" glyph-name="google-plus" horiz-adv-x="1317" d="M821.143 429.143c0-239.429-160.571-409.143-402.286-409.143-231.429 0-418.857 187.429-418.857 418.857s187.429 418.857 418.857 418.857c113.143 0 207.429-41.143 280.571-109.714l-113.714-109.143c-30.857 29.714-85.143 64.571-166.857 64.571-142.857 0-259.429-118.286-259.429-264.571s116.571-264.571 259.429-264.571c165.714 0 228 119.429 237.714 180.571h-237.714v144h395.429c4-21.143 6.857-42.286 6.857-69.714zM1316.571 498.857v-120h-119.429v-119.429h-120v119.429h-119.429v120h119.429v119.429h120v-119.429h119.429z" />
<glyph unicode="&#xf0e1;" glyph-name="linkedin" horiz-adv-x="878" d="M199.429 593.714v-566.286h-188.571v566.286h188.571zM211.429 768.571c0.571-54.286-40.571-97.714-106.286-97.714v0h-1.143c-63.429 0-104 43.429-104 97.714 0 55.429 42.286 97.714 106.286 97.714 64.571 0 104.571-42.286 105.143-97.714zM877.714 352v-324.571h-188v302.857c0 76-27.429 128-95.429 128-52 0-82.857-34.857-96.571-68.571-4.571-12.571-6.286-29.143-6.286-46.286v-316h-188c2.286 513.143 0 566.286 0 566.286h188v-82.286h-1.143c24.571 38.857 69.143 95.429 170.857 95.429 124 0 216.571-81.143 216.571-254.857z" />
<glyph unicode="&#xf173;" glyph-name="tumblr" horiz-adv-x="624" d="M539.429 191.428l45.714-135.429c-17.143-25.714-94.857-54.857-164.571-56-207.429-3.429-285.714 147.429-285.714 253.714v310.857h-96v122.857c144 52 178.857 182.286 186.857 256.571 0.571 4.571 4.571 6.857 6.857 6.857h139.429v-242.286h190.286v-144h-190.857v-296c0-40 14.857-95.429 91.429-93.714 25.143 0.571 58.857 8 76.571 16.571z" />
<glyph unicode="&#xf1a4;" glyph-name="stumbleupon" horiz-adv-x="1097" d="M606.857 544v67.429c0 32-26.286 58.286-58.286 58.286s-58.286-26.286-58.286-58.286v-349.714c0-133.714-110.857-241.714-245.143-241.714-135.429 0-245.143 109.714-245.143 245.143v152h187.429v-149.714c0-32.571 26.286-58.286 58.286-58.286s58.286 25.714 58.286 58.286v354.286c0 130.857 112 236 244.571 236 133.143 0 244.571-105.714 244.571-237.714v-77.714l-111.429-33.143zM909.714 417.143h187.429v-152c0-135.429-109.714-245.143-245.143-245.143-134.857 0-245.143 108.571-245.143 242.857v153.143l74.857-34.857 111.429 33.143v-154.286c0-32 26.286-57.714 58.286-57.714s58.286 25.714 58.286 57.714v157.143z" />
<glyph unicode="&#xf1a6;" glyph-name="digg" horiz-adv-x="1170" d="M187.429 789.714h116.571v-561.714h-304v398.286h187.429v163.429zM187.429 321.714v210.857h-70.286v-210.857h70.286zM350.857 626.286v-398.286h117.143v398.286h-117.143zM350.857 789.714v-116.571h117.143v116.571h-117.143zM514.857 626.286h304.571v-538.286h-304.571v93.143h187.429v46.857h-187.429v398.286zM702.286 321.714v210.857h-70.286v-210.857h70.286zM866.286 626.286h304v-538.286h-304v93.143h186.857v46.857h-186.857v398.286zM1053.143 321.714v210.857h-70.286v-210.857h70.286z" />
<glyph unicode="&#xf1d7;" glyph-name="wechat" horiz-adv-x="1170" d="M331.429 687.428c0 31.429-20.571 52-52 52-30.857 0-62.286-20.571-62.286-52 0-30.857 31.429-51.429 62.286-51.429 31.429 0 52 20.571 52 51.429zM756 397.714c0 20.571-20.571 41.143-52 41.143-20.571 0-41.143-20.571-41.143-41.143 0-21.143 20.571-41.714 41.143-41.714 31.429 0 52 20.571 52 41.714zM621.143 687.428c0 31.429-20.571 52-51.429 52-31.429 0-62.286-20.571-62.286-52 0-30.857 30.857-51.429 62.286-51.429 30.857 0 51.429 20.571 51.429 51.429zM984 397.714c0 20.571-21.143 41.143-52 41.143-20.571 0-41.143-20.571-41.143-41.143 0-21.143 20.571-41.714 41.143-41.714 30.857 0 52 20.571 52 41.714zM832 624.571c-13.143 1.714-26.286 2.286-40 2.286-196.571 0-352-146.857-352-327.429 0-30.286 4.571-59.429 13.143-86.857-13.143-1.143-25.714-1.714-38.857-1.714-52 0-93.143 10.286-145.143 20.571l-144.571-72.571 41.143 124.571c-103.429 72.571-165.714 166.286-165.714 280 0 197.143 186.286 352 414.286 352 203.429 0 382.286-124 417.714-290.857zM1170.286 304c0-93.143-61.714-176-145.143-238.286l31.429-103.429-113.714 62.286c-41.714-10.286-83.429-21.143-124.571-21.143-197.143 0-352 134.857-352 300.571s154.857 300.571 352 300.571c186.286 0 352-134.857 352-300.571z" />
<glyph unicode="&#xf232;" glyph-name="whatsapp" horiz-adv-x="878" d="M562.857 394.286c9.714 0 102.857-48.571 106.857-55.429 1.143-2.857 1.143-6.286 1.143-8.571 0-14.286-4.571-30.286-9.714-43.429-13.143-32-66.286-52.571-98.857-52.571-27.429 0-84 24-108.571 35.429-81.714 37.143-132.571 100.571-181.714 173.143-21.714 32-41.143 71.429-40.571 110.857v4.571c1.143 37.714 14.857 64.571 42.286 90.286 8.571 8 17.714 12.571 29.714 12.571 6.857 0 13.714-1.714 21.143-1.714 15.429 0 18.286-4.571 24-19.429 4-9.714 33.143-87.429 33.143-93.143 0-21.714-39.429-46.286-39.429-59.429 0-2.857 1.143-5.714 2.857-8.571 12.571-26.857 36.571-57.714 58.286-78.286 26.286-25.143 54.286-41.714 86.286-57.714 4-2.286 8-4 12.571-4 17.143 0 45.714 55.429 60.571 55.429zM446.857 91.428c197.714 0 358.857 161.143 358.857 358.857s-161.143 358.857-358.857 358.857-358.857-161.143-358.857-358.857c0-75.429 24-149.143 68.571-210.286l-45.143-133.143 138.286 44c58.286-38.286 127.429-59.429 197.143-59.429zM446.857 881.143c237.714 0 430.857-193.143 430.857-430.857s-193.143-430.857-430.857-430.857c-72.571 0-144.571 18.286-208.571 53.714l-238.286-76.571 77.714 231.429c-40.571 66.857-61.714 144-61.714 222.286 0 237.714 193.143 430.857 430.857 430.857z" />
<glyph unicode="&#xf263;" glyph-name="odnoklassniki" horiz-adv-x="731" d="M365.714 432.571c-142.857 0-259.429 116-259.429 258.857 0 143.429 116.571 259.429 259.429 259.429s259.429-116 259.429-259.429c0-142.857-116.571-258.857-259.429-258.857zM365.714 819.428c-70.286 0-127.429-57.143-127.429-128 0-70.286 57.143-127.429 127.429-127.429s127.429 57.143 127.429 127.429c0 70.857-57.143 128-127.429 128zM664.571 401.143c25.143-51.429-3.429-76-68.571-118.286-54.857-34.857-130.286-48.571-180-53.714l41.714-41.143 152.571-152.571c22.857-23.429 22.857-61.143 0-84l-6.857-7.429c-23.429-22.857-61.143-22.857-84.571 0-38.286 38.857-94.286 94.857-152.571 153.143l-152.571-153.143c-23.429-22.857-61.143-22.857-84 0l-6.857 7.429c-23.429 22.857-23.429 60.571 0 84 38.857 38.857 94.286 94.857 152.571 152.571l41.143 41.143c-49.143 5.143-125.714 18.286-181.143 53.714-65.143 42.286-93.714 66.857-68.571 118.286 14.857 29.143 55.429 53.714 109.143 11.429 0 0 72.571-57.714 189.714-57.714s189.714 57.714 189.714 57.714c53.714 42.286 94.286 17.714 109.143-11.429z" />
<glyph unicode="&#xf265;" glyph-name="pocket-social" horiz-adv-x="983" d="M894.286 877.714c49.714 0 88.571-40 88.571-89.143v-296.571c0-273.714-218.857-492-490.857-492-273.143 0-492 218.286-492 492v296.571c0 48.571 40.571 89.143 89.143 89.143h805.143zM492 269.714c17.143 0 34.286 6.857 46.857 18.857l230.857 221.714c13.143 12.571 21.143 30.286 21.143 48.571 0 37.143-30.286 67.429-67.429 67.429-17.714 0-34.286-6.857-46.857-18.857l-184.571-177.143-184.571 177.143c-12.571 12-29.143 18.857-46.286 18.857-37.143 0-67.429-30.286-67.429-67.429 0-18.286 7.429-36 20.571-48.571l231.429-221.714c12-12 29.143-18.857 46.286-18.857z" />
<glyph unicode="&#xf281;" glyph-name="reddit-alien" d="M1024 467.428c0-44.571-25.143-82.857-62.286-101.714 4.571-17.714 6.857-36 6.857-54.857 0-180.571-204-326.857-455.429-326.857-250.857 0-454.857 146.286-454.857 326.857 0 18.286 2.286 36.571 6.286 53.714-38.286 18.857-64.571 57.714-64.571 102.857 0 62.857 50.857 113.714 113.714 113.714 32.571 0 61.714-13.714 82.857-36 77.143 53.714 180 88.571 294.286 92.571l66.286 297.714c2.286 10.286 13.143 17.143 23.429 14.857l210.857-46.286c13.714 27.429 42.857 46.857 76 46.857 47.429 0 85.714-38.286 85.714-85.143 0-47.429-38.286-85.714-85.714-85.714-46.857 0-85.143 38.286-85.143 85.143l-190.857 42.286-59.429-269.714c114.857-3.429 218.857-37.714 296.571-91.429 20.571 21.714 49.714 34.857 81.714 34.857 62.857 0 113.714-50.857 113.714-113.714zM238.857 353.714c0-47.429 38.286-85.714 85.143-85.714 47.429 0 85.714 38.286 85.714 85.714 0 46.857-38.286 85.143-85.714 85.143-46.857 0-85.143-38.286-85.143-85.143zM701.714 150.857c8.571 8.571 8.571 21.143 0 29.714-8 8-21.143 8-29.143 0-34.286-34.857-108-46.857-160.571-46.857s-126.286 12-160.571 46.857c-8 8-21.143 8-29.143 0-8.571-8-8.571-21.143 0-29.714 54.286-54.286 158.857-58.286 189.714-58.286s135.429 4 189.714 58.286zM700 268c46.857 0 85.143 38.286 85.143 85.714 0 46.857-38.286 85.143-85.143 85.143-47.429 0-85.714-38.286-85.714-85.143 0-47.429 38.286-85.714 85.714-85.714z" />
<glyph unicode="&#xf2c9;" glyph-name="telegram-social" d="M679.429 204l84 396c7.429 34.857-12.571 48.571-35.429 40l-493.714-190.286c-33.714-13.143-33.143-32-5.714-40.571l126.286-39.429 293.143 184.571c13.714 9.143 26.286 4 16-5.143l-237.143-214.286-9.143-130.286c13.143 0 18.857 5.714 25.714 12.571l61.714 59.429 128-94.286c23.429-13.143 40-6.286 46.286 21.714zM1024 438.857c0-282.857-229.143-512-512-512s-512 229.143-512 512 229.143 512 512 512 512-229.143 512-512z" />
</font>
</defs>
</svg>
